<svg xmlns="http://www.w3.org/2000/svg" width="14" height="14" viewBox="0 0 14 14"><g transform="translate(-305 -1715)"><circle cx="7" cy="7" r="7" transform="translate(305 1715)" fill="#5b6fb4"/><g transform="translate(301.5 1711.5)"><path d="M13.5,18.5h-6a.5.5,0,0,1,0-1h6a.5.5,0,0,1,0,1Z" transform="translate(0 -7.5)" fill="#fff"/><path d="M18,14a.5.5,0,0,1-.354-.854L20.293,10.5,17.646,7.854a.5.5,0,1,1,.707-.707l3,3a.5.5,0,0,1,0,.707l-3,3A.5.5,0,0,1,18,14Z" transform="translate(-7.5)" fill="#fff"/></g></g></svg>