<svg xmlns="http://www.w3.org/2000/svg" width="24" height="31.158" viewBox="0 0 24 31.158"><g transform="translate(0 0)"><g transform="translate(0 0)"><path d="M18.481,31.158H2.356A2.358,2.358,0,0,1,0,28.8V2.356A2.359,2.359,0,0,1,2.356,0H18.481a2.36,2.36,0,0,1,2.356,2.356V28.8a2.359,2.359,0,0,1-2.356,2.356M2.356,1.236a1.121,1.121,0,0,0-1.12,1.12V28.8a1.121,1.121,0,0,0,1.12,1.12H18.481A1.121,1.121,0,0,0,19.6,28.8V2.356a1.121,1.121,0,0,0-1.12-1.12Z" fill="#333"/><path d="M9.244,21.536H8a1.367,1.367,0,0,1-1.366-1.366V18.429H4.894a1.366,1.366,0,0,1-1.366-1.364V15.821a1.367,1.367,0,0,1,1.366-1.366H6.636V12.713A1.366,1.366,0,0,1,8,11.349H9.244a1.365,1.365,0,0,1,1.366,1.364v1.742h1.742a1.367,1.367,0,0,1,1.366,1.366v1.244a1.366,1.366,0,0,1-1.366,1.364H10.609v1.742a1.366,1.366,0,0,1-1.366,1.366m-4.35-5.845a.131.131,0,0,0-.13.13v1.244a.129.129,0,0,0,.13.128H7.253a.619.619,0,0,1,.619.619v2.359A.131.131,0,0,0,8,20.3H9.244a.131.131,0,0,0,.13-.13V17.812a.62.62,0,0,1,.619-.619h2.359a.129.129,0,0,0,.13-.128V15.821a.133.133,0,0,0-.13-.13H9.992a.618.618,0,0,1-.619-.617v-2.36a.129.129,0,0,0-.13-.128H8a.129.129,0,0,0-.13.128v2.36a.617.617,0,0,1-.619.617Z" transform="translate(1.797 5.779)" fill="#333"/><path d="M14.711,3.917H3.242a.618.618,0,0,1,0-1.236H14.711a.618.618,0,0,1,0,1.236" transform="translate(1.337 1.365)" fill="#333"/><path d="M14.711,6.624H3.242a.618.618,0,0,1,0-1.236H14.711a.618.618,0,0,1,0,1.236" transform="translate(1.337 2.744)" fill="#333"/><path d="M14.711,9.135H3.242a.618.618,0,0,1,0-1.236H14.711a.618.618,0,0,1,0,1.236" transform="translate(1.337 4.023)" fill="#333"/><path d="M13.605,8.781a.618.618,0,0,1,0-1.236c1.553,0,2.545-.664,2.545-1.12V3.508c0-.457-.992-1.12-2.545-1.12a.618.618,0,0,1,0-1.236c2.119,0,3.781,1.034,3.781,2.356V6.425c0,1.321-1.662,2.356-3.781,2.356" transform="translate(6.614 0.587)" fill="#333"/><path d="M13.605,13.017a.618.618,0,0,1,0-1.236c1.553,0,2.545-.664,2.545-1.12V7.744c0-.456-.992-1.12-2.545-1.12a.618.618,0,0,1,0-1.236c2.119,0,3.781,1.035,3.781,2.356v2.917c0,1.321-1.662,2.356-3.781,2.356" transform="translate(6.614 2.744)" fill="#333"/><path d="M13.605,17.254a.618.618,0,0,1,0-1.236c1.553,0,2.545-.664,2.545-1.12V11.981c0-.457-.992-1.12-2.545-1.12a.618.618,0,0,1,0-1.236c2.119,0,3.781,1.034,3.781,2.356V14.9c0,1.321-1.662,2.356-3.781,2.356" transform="translate(6.614 4.901)" fill="#333"/><path d="M13.605,21.49a.618.618,0,0,1,0-1.236c1.553,0,2.545-.664,2.545-1.12V16.217c0-.457-.992-1.12-2.545-1.12a.618.618,0,0,1,0-1.236c2.119,0,3.781,1.034,3.781,2.356v2.917c0,1.321-1.662,2.356-3.781,2.356" transform="translate(6.614 7.059)" fill="#333"/></g></g></svg>