<svg xmlns="http://www.w3.org/2000/svg" width="20" height="20" viewBox="0 0 20 20"><g transform="translate(-1105 -20)"><path d="M10,0A10,10,0,1,1,0,10,10,10,0,0,1,10,0Z" transform="translate(1105 20)" fill="#d8d5a8"/><g transform="translate(1109 25)"><g transform="translate(0.208 0.208)"><path d="M8.833,9.65a.4.4,0,0,1-.162-.034L4.921,7.949a.4.4,0,1,1,.325-.731L8.512,8.67,9.582,1.183.673,5.444a.4.4,0,0,1-.345-.722L9.911.139a.4.4,0,0,1,.569.417l-1.25,8.75a.4.4,0,0,1-.4.343Z" transform="translate(-0.5 -0.5)" fill="#333"/></g><path d="M8.583,10.317a.4.4,0,0,1-.329-.628L10.7,6.16,6.732,8.992a.4.4,0,0,1-.465-.651L12.1,4.175a.4.4,0,0,1,.561.553l-3.75,5.417A.4.4,0,0,1,8.583,10.317Z" transform="translate(-3.792 -2.625)" fill="#333"/><path d="M1.667,4.15A.4.4,0,0,1,1.3,3.912L-.366.162a.4.4,0,0,1,.2-.528.4.4,0,0,1,.528.2l1.667,3.75a.4.4,0,0,1-.365.563Z" transform="translate(2.708 6.042)" fill="#333"/><path d="M0,2.9a.4.4,0,0,1-.066-.006.4.4,0,0,1-.329-.46l.417-2.5a.4.4,0,0,1,.46-.329.4.4,0,0,1,.329.46l-.417,2.5A.4.4,0,0,1,0,2.9Z" transform="translate(4.375 7.292)" fill="#333"/><path d="M0,2.379a.4.4,0,0,1-.25-.088.4.4,0,0,1-.062-.562L1.271-.25a.4.4,0,0,1,.562-.062A.4.4,0,0,1,1.9.25L.312,2.229A.4.4,0,0,1,0,2.379Z" transform="translate(4.375 7.813)" fill="#333"/><path d="M2.5,1.65a.4.4,0,0,1-.179-.042L-.179.358A.4.4,0,0,1-.358-.179.4.4,0,0,1,.179-.358l2.5,1.25A.4.4,0,0,1,2.5,1.65Z" transform="translate(0.208 4.792)" fill="#333"/></g></g></svg>