<svg xmlns="http://www.w3.org/2000/svg" width="20" height="20" viewBox="0 0 20 20"><g transform="translate(-1105 -20)"><path d="M10,0A10,10,0,1,1,0,10,10,10,0,0,1,10,0Z" transform="translate(1105 20)" fill="#5b6fb4"/><g transform="translate(1109 25)"><g transform="translate(0.208 0.208)"><path d="M8.833,9.75a.5.5,0,0,1-.2-.043L4.88,8.04a.5.5,0,1,1,.406-.914l3.146,1.4,1.024-7.17L.716,5.534a.5.5,0,0,1-.431-.9L9.868.049a.5.5,0,0,1,.711.522l-1.25,8.75a.5.5,0,0,1-.495.429Z" transform="translate(-0.5 -0.5)" fill="#fff"/></g><path d="M8.583,10.417a.5.5,0,0,1-.411-.785l2.117-3.057-3.5,2.5a.5.5,0,0,1-.581-.814l5.833-4.167a.5.5,0,0,1,.7.691L8.994,10.2A.5.5,0,0,1,8.583,10.417Z" transform="translate(-3.792 -2.625)" fill="#fff"/><path d="M1.667,4.25a.5.5,0,0,1-.457-.3L-.457.2A.5.5,0,0,1-.2-.457.5.5,0,0,1,.457-.2l1.667,3.75a.5.5,0,0,1-.457.7Z" transform="translate(2.708 6.042)" fill="#fff"/><path d="M0,3a.5.5,0,0,1-.083-.007.5.5,0,0,1-.411-.575l.417-2.5A.5.5,0,0,1,.5-.493.5.5,0,0,1,.91.082l-.417,2.5A.5.5,0,0,1,0,3Z" transform="translate(4.375 7.292)" fill="#fff"/><path d="M0,2.479a.5.5,0,0,1-.312-.11.5.5,0,0,1-.078-.7L1.193-.312A.5.5,0,0,1,1.9-.39a.5.5,0,0,1,.078.7L.39,2.292A.5.5,0,0,1,0,2.479Z" transform="translate(4.375 7.813)" fill="#fff"/><path d="M2.5,1.75A.5.5,0,0,1,2.276,1.7L-.224.447A.5.5,0,0,1-.447-.224.5.5,0,0,1,.224-.447L2.724.8A.5.5,0,0,1,2.5,1.75Z" transform="translate(0.208 4.792)" fill="#fff"/></g></g></svg>