<svg xmlns="http://www.w3.org/2000/svg" width="29.999" height="32.519" viewBox="0 0 29.999 32.519"><g transform="translate(0.001 0.001)"><g transform="translate(0 0)"><path d="M6.9,28.142H6.857A7.409,7.409,0,0,1,2.168,15.5L15.5,2.168A7.425,7.425,0,0,1,26,12.667L19.065,19.6a.557.557,0,0,1-.788-.788l6.936-6.936a6.31,6.31,0,1,0-8.924-8.924L2.957,16.289A6.3,6.3,0,0,0,6.937,27.03.557.557,0,0,1,6.9,28.142" transform="translate(0 -0.001)" fill="#333"/><path d="M16.2,16.758a.554.554,0,0,1-.395-.164L6.1,6.884A.557.557,0,0,1,6.884,6.1l9.712,9.71a.558.558,0,0,1-.395.952" transform="translate(2.739 2.739)" fill="#333"/><path d="M16.167,21.979c-5.734,0-11.828-1.615-11.828-4.61s6.094-4.61,11.828-4.61S28,14.374,28,17.369s-6.094,4.61-11.828,4.61m0-8.107c-6.315,0-10.714,1.843-10.714,3.5s4.4,3.5,10.714,3.5,10.714-1.843,10.714-3.5-4.4-3.5-10.714-3.5" transform="translate(2.003 5.891)" fill="#333"/><path d="M16.167,25.347c-5.734,0-11.828-1.617-11.828-4.61V16.089a.557.557,0,0,1,1.114,0v4.648c0,1.653,4.4,3.5,10.714,3.5s10.714-1.843,10.714-3.5V16.089a.557.557,0,0,1,1.114,0v4.648c0,2.994-6.094,4.61-11.828,4.61" transform="translate(2.003 7.171)" fill="#333"/><path d="M23.676,20.2a.569.569,0,0,1-.17-.026l-16.823-5.4a.557.557,0,1,1,.339-1.061l16.823,5.4a.557.557,0,0,1-.17,1.088" transform="translate(2.907 6.319)" fill="#333"/></g></g></svg>