<svg xmlns="http://www.w3.org/2000/svg" width="20" height="20" viewBox="0 0 20 20"><g transform="translate(-1211.5 -20)"><path d="M10,0A10,10,0,1,1,0,10,10,10,0,0,1,10,0Z" transform="translate(1211.5 20)" fill="#a8b7ce"/><g transform="translate(1216 24.5)"><g transform="translate(0.5 0.5)"><path d="M5-.5A5.5,5.5,0,1,1-.5,5,5.506,5.506,0,0,1,5-.5Zm0,10A4.5,4.5,0,1,0,.5,5,4.505,4.505,0,0,0,5,9.5Z" fill="#333"/><path d="M10.909,17.042a.5.5,0,0,1-.46-.3,3.489,3.489,0,0,0-6.359,0,.5.5,0,1,1-.919-.4,4.489,4.489,0,0,1,8.2,0,.5.5,0,0,1-.459.7Z" transform="translate(-2.27 -8.237)" fill="#333"/><path d="M1.739-.5A2.239,2.239,0,1,1-.5,1.739,2.242,2.242,0,0,1,1.739-.5Zm0,3.478A1.239,1.239,0,1,0,.5,1.739,1.241,1.241,0,0,0,1.739,2.978Z" transform="translate(3.261 1.616)" fill="#333"/></g></g></g></svg>