<svg xmlns="http://www.w3.org/2000/svg" xmlns:xlink="http://www.w3.org/1999/xlink" width="20" height="25" viewBox="0 0 20 25"><defs><clipPath id="a"><rect width="20" height="25" transform="translate(0 0)" fill="#333"/></clipPath></defs><g transform="translate(0 0.002)"><g transform="translate(0 -0.002)" clip-path="url(#a)"><path d="M19.993,21.483V4.187c0-.237.047-.537-.114-.732l-.011-.013-.008-.008-1.3-1.295L16.727.311c-.145-.144-.27-.3-.494-.312-.085,0-.171,0-.257,0H1.481A1.487,1.487,0,0,0,.57.284,1.44,1.44,0,0,0,0,1.433c0,.073,0,.146,0,.218V23.508a1.569,1.569,0,0,0,.111.618A1.441,1.441,0,0,0,1.427,25c.247,0,.494,0,.741,0H18.437a2.259,2.259,0,0,0,.38-.022,1.434,1.434,0,0,0,1.176-1.362c.006-.2,0-.4,0-.595ZM16.663,2c0-.185,0-.371,0-.556l.06.06.524.523.631.629.549.547.115.115H17.276a.618.618,0,0,1-.385-.116.58.58,0,0,1-.228-.464c0-.246,0-.491,0-.737M.93,1.125c.166-.275.437-.28.712-.28H15.814c0,.639-.01,1.278,0,1.917A1.435,1.435,0,0,0,16.972,4.14a2.436,2.436,0,0,0,.443.025h1.729v13.3H.849V1.6A.862.862,0,0,1,.93,1.125M19.144,23.578a.583.583,0,0,1-.584.573H1.753c-.11,0-.22,0-.329,0a.582.582,0,0,1-.576-.576c0-.029,0-.058,0-.088V18.311h17.54c.241,0,.482,0,.723,0h.033v4.466c0,.254-.006.509,0,.763,0,.011,0,.022,0,.032" transform="translate(0.001 0.002)" fill="#333"/><path d="M569.074,551.278c.742,0,1.863-.988,2.682-2.653a15.913,15.913,0,0,1,2.74-.737,4.585,4.585,0,0,0,1.764,1c.99,0,1.2-.571,1.2-1.049,0-.941-1.078-.941-1.6-.941a9.469,9.469,0,0,0-1.158.142,11.561,11.561,0,0,1-.955-.821c-.3-.3-.575-.6-.811-.877a8.891,8.891,0,0,0,.528-2.025c0-1.321-.479-1.592-1.2-1.592-.546,0-1.2.283-1.2,1.63a3.81,3.81,0,0,0,.973,2.152c-.158.482-.344,1.037-.553,1.663-.1.3-.21.579-.325.836-.094.042-.185.084-.273.128-.317.158-.619.3-.9.432-1.275.6-2.117,1-2.117,1.785,0,.57.622.924,1.2.924m6.787-3.581c.59,0,.757.057.8.145,0,.179,0,.253-.37.255a2.945,2.945,0,0,1-.671-.382c.113-.012.2-.019.242-.019m-2.678-.912c.075.075.26.242.508.453-.492.107-1.016.239-1.516.4q.037-.1.072-.21c.148-.443.281-.841.4-1.2q.249.273.536.559m-1.315-3.427c0-.834.26-.834.4-.834.282,0,.4,0,.4.8a6.366,6.366,0,0,1-.318,1.243,2.441,2.441,0,0,1-.481-1.2m-1.533,5.93.158-.074c-.6.867-1.193,1.268-1.419,1.268a.632.632,0,0,1-.4-.128c0-.282.844-.681,1.66-1.066" transform="translate(-562.67 -536.777)" fill="#333"/><path d="M547.674,2109.533h-1.863v3.958h.685v-1.483h1.178a1.2,1.2,0,0,0,.883-.313,1.224,1.224,0,0,0,.314-.9,1.254,1.254,0,0,0-.336-.925,1.175,1.175,0,0,0-.861-.335m.316,1.729a.573.573,0,0,1-.427.152H546.5v-1.287h1.067a.6.6,0,0,1,.449.174.678.678,0,0,1,.152.492.628.628,0,0,1-.174.469" transform="translate(-540.807 -2090.254)" fill="#333"/><path d="M932.26,2109.534h-1.419v3.958h1.419a1.594,1.594,0,0,0,1.172-.446,2.033,2.033,0,0,0,.536-1.5,2.072,2.072,0,0,0-.514-1.522,1.635,1.635,0,0,0-1.194-.49m.6,3.124a.843.843,0,0,1-.627.24h-.712v-2.77h.712a.89.89,0,0,1,.649.284,1.546,1.546,0,0,1,.374,1.134,1.508,1.508,0,0,1-.4,1.112" transform="translate(-922.307 -2090.255)" fill="#333"/><path d="M1340.087,2113.491h.685v-1.7h1.6v-.594h-1.6v-1.066h2.043v-.594h-2.727Z" transform="translate(-1327.801 -2090.255)" fill="#333"/></g></g></svg>