<svg xmlns="http://www.w3.org/2000/svg" width="40" height="28.325" viewBox="0 0 40 28.325"><g transform="translate(-908 -78.755)"><g transform="translate(908 78.755)"><g transform="translate(0 0)"><path d="M15.092,14.93A5.344,5.344,0,0,1,9.753,9.593V5.337a5.338,5.338,0,0,1,10.676,0V9.593a5.343,5.343,0,0,1-5.337,5.337m0-13.767a4.18,4.18,0,0,0-4.175,4.175V9.593a4.175,4.175,0,1,0,8.35,0V5.337a4.18,4.18,0,0,0-4.175-4.175" transform="translate(5.032)" fill="#333"/><path d="M22.517,23.224H10.54a3.816,3.816,0,0,1-3.811-3.811v-4.4a3.427,3.427,0,0,1,1.6-2.556,8.666,8.666,0,0,1,3.042-1.51L15.08,9.91a.582.582,0,1,1,.314,1.12l-3.712,1.041a7.531,7.531,0,0,0-2.638,1.3c-.524.414-1.151,1.034-1.151,1.642v4.4a2.651,2.651,0,0,0,2.647,2.648H22.517a2.652,2.652,0,0,0,2.648-2.648v-4.4c0-.608-.626-1.228-1.152-1.642a7.518,7.518,0,0,0-2.638-1.3l-3.6-1.011a.582.582,0,1,1,.314-1.12l3.6,1.011a8.674,8.674,0,0,1,3.044,1.51,3.429,3.429,0,0,1,1.595,2.556v4.4a3.816,3.816,0,0,1-3.811,3.811" transform="translate(3.471 5.101)" fill="#333"/><path d="M12.539,11.467a.582.582,0,0,1-.582-.582V9.664a.582.582,0,0,1,1.164,0v1.22a.582.582,0,0,1-.582.582" transform="translate(6.169 4.685)" fill="#333"/><path d="M14.314,11.5a.582.582,0,0,1-.582-.582V9.664a.582.582,0,0,1,1.164,0v1.251a.582.582,0,0,1-.582.582" transform="translate(7.084 4.685)" fill="#333"/><path d="M14.341,15.873c-1.86,0-3.373-1.975-3.373-4.4a5.819,5.819,0,0,1,.056-.816.582.582,0,0,1,1.152.165,4.609,4.609,0,0,0-.045.65c0,1.755,1.013,3.238,2.21,3.238s2.212-1.483,2.212-3.238a4.609,4.609,0,0,0-.045-.65.581.581,0,0,1,1.151-.165,5.819,5.819,0,0,1,.058.816c0,2.427-1.514,4.4-3.374,4.4" transform="translate(5.658 5.239)" fill="#333"/><path d="M16.841,4.959a3.377,3.377,0,0,1-1.433-.311,3.765,3.765,0,0,1-1.188-.922,1.582,1.582,0,0,0-.782-.565c-.682-.156-1.6.374-2.676,1.533A.582.582,0,1,1,9.909,3.9c1.41-1.522,2.647-2.137,3.787-1.875a2.64,2.64,0,0,1,1.367.9,2.684,2.684,0,0,0,.834.667c.609.282,1.566.456,3.574-.69a.581.581,0,0,1,.576,1.01,6.625,6.625,0,0,1-3.206,1.047" transform="translate(5.032 1.015)" fill="#333"/><path d="M22.3,13.417A4.821,4.821,0,0,1,17.487,8.6V4.814a4.816,4.816,0,0,1,9.632,0V8.6A4.822,4.822,0,0,1,22.3,13.417m0-12.255a3.656,3.656,0,0,0-3.652,3.652V8.6a3.652,3.652,0,0,0,7.3,0V4.814A3.657,3.657,0,0,0,22.3,1.163" transform="translate(9.022)" fill="#333"/><path d="M16,12.377a.582.582,0,0,1-.39-1.014c.1-.091.2-.177.309-.259a7.831,7.831,0,0,1,2.73-1.355l3.3-.926a.582.582,0,1,1,.315,1.12l-3.3.926a6.634,6.634,0,0,0-2.325,1.151c-.085.067-.168.136-.249.208a.585.585,0,0,1-.39.15" transform="translate(7.954 4.54)" fill="#333"/><path d="M26.8,20.79H19.465a.581.581,0,1,1,0-1.163H26.8A2.3,2.3,0,0,0,29.1,17.334V13.422c0-.4-.356-.9-1-1.41a6.634,6.634,0,0,0-2.325-1.151l-3.209-.9a.582.582,0,1,1,.314-1.12l3.209.9a7.792,7.792,0,0,1,2.73,1.355,3.105,3.105,0,0,1,1.445,2.325v3.913A3.461,3.461,0,0,1,26.8,20.79" transform="translate(9.742 4.549)" fill="#333"/><path d="M20.03,10.334a.582.582,0,0,1-.582-.582V8.665a.582.582,0,0,1,1.164,0V9.751a.582.582,0,0,1-.582.582" transform="translate(10.033 4.171)" fill="#333"/><path d="M21.61,10.361a.582.582,0,0,1-.582-.582V8.666a.582.582,0,1,1,1.164,0V9.779a.582.582,0,0,1-.582.582" transform="translate(10.848 4.171)" fill="#333"/><path d="M21.634,14.255c-1.69,0-3.067-1.786-3.067-3.981a5.347,5.347,0,0,1,.052-.735.582.582,0,1,1,1.152.165,3.912,3.912,0,0,0-.039.57c0,1.527.872,2.817,1.9,2.817s1.9-1.29,1.9-2.817A4.136,4.136,0,0,0,23.5,9.7a.582.582,0,1,1,1.152-.165,5.313,5.313,0,0,1,.052.735c0,2.2-1.376,3.981-3.068,3.981" transform="translate(9.579 4.663)" fill="#333"/><path d="M23.86,4.542a3.062,3.062,0,0,1-1.3-.282,3.421,3.421,0,0,1-1.079-.835,1.326,1.326,0,0,0-.664-.485c-.581-.135-1.381.332-2.318,1.346a.582.582,0,1,1-.853-.791c1.269-1.373,2.392-1.928,3.43-1.689a2.408,2.408,0,0,1,1.249.817,2.315,2.315,0,0,0,.722.581c.529.243,1.361.394,3.123-.612a.582.582,0,1,1,.578,1.01,5.952,5.952,0,0,1-2.885.941" transform="translate(9.022 0.904)" fill="#333"/><path d="M7.507,13.417A4.82,4.82,0,0,1,2.693,8.6V4.814a4.815,4.815,0,0,1,9.63,0V8.6a4.821,4.821,0,0,1-4.816,4.814m0-12.255A3.657,3.657,0,0,0,3.856,4.814V8.6a3.652,3.652,0,0,0,7.3,0V4.814A3.657,3.657,0,0,0,7.507,1.163" transform="translate(1.389)" fill="#333"/><path d="M10.781,20.8H3.456A3.46,3.46,0,0,1,0,17.343V13.43a3.11,3.11,0,0,1,1.443-2.325A7.8,7.8,0,0,1,4.175,9.75l3.3-.926a.582.582,0,1,1,.314,1.12l-3.3.926a6.634,6.634,0,0,0-2.325,1.151c-.646.506-1,1.008-1,1.41v3.913a2.3,2.3,0,0,0,2.294,2.294h7.325a.581.581,0,1,1,0,1.163" transform="translate(0 4.541)" fill="#333"/><path d="M12.792,12.333a.579.579,0,0,1-.384-.144c-.071-.062-.144-.121-.217-.18A6.631,6.631,0,0,0,9.866,10.86l-3.208-.9a.582.582,0,0,1,.314-1.12l3.209.9a7.782,7.782,0,0,1,2.73,1.357c.089.07.179.142.264.218a.581.581,0,0,1-.384,1.019" transform="translate(3.216 4.549)" fill="#333"/><path d="M5.235,10.334a.582.582,0,0,1-.582-.582V8.665a.582.582,0,0,1,1.164,0V9.751a.582.582,0,0,1-.582.582" transform="translate(2.4 4.171)" fill="#333"/><path d="M6.816,10.361a.582.582,0,0,1-.582-.582V8.666a.582.582,0,1,1,1.164,0V9.779a.582.582,0,0,1-.582.582" transform="translate(3.216 4.171)" fill="#333"/><path d="M6.84,14.255c-1.69,0-3.067-1.786-3.067-3.981a5.313,5.313,0,0,1,.052-.735A.582.582,0,1,1,4.977,9.7a3.911,3.911,0,0,0-.041.57c0,1.527.872,2.817,1.9,2.817s1.9-1.29,1.9-2.817A4.153,4.153,0,0,0,8.7,9.7a.581.581,0,1,1,1.151-.165,5.15,5.15,0,0,1,.053.735c0,2.2-1.376,3.981-3.068,3.981" transform="translate(1.946 4.663)" fill="#333"/><path d="M9.064,4.542a3.06,3.06,0,0,1-1.3-.282,3.439,3.439,0,0,1-1.079-.835,1.326,1.326,0,0,0-.664-.485c-.578-.133-1.382.332-2.319,1.345a.581.581,0,1,1-.853-.79C4.118,2.119,5.241,1.566,6.28,1.805a2.408,2.408,0,0,1,1.249.817A2.315,2.315,0,0,0,8.25,3.2c.529.243,1.361.394,3.123-.612a.582.582,0,1,1,.578,1.01,5.961,5.961,0,0,1-2.886.941" transform="translate(1.389 0.903)" fill="#333"/></g></g><g transform="translate(929.657 99.267)"><g transform="translate(0 0)"><path d="M1.541,3.984A.554.554,0,0,1,.987,3.43V.76a.554.554,0,1,1,1.108,0V3.43a.553.553,0,0,1-.553.554" transform="translate(0.348 -0.206)" fill="#333"/><path d="M3.224,2.3H.553a.554.554,0,0,1,0-1.108H3.224a.554.554,0,0,1,0,1.108" transform="translate(0 0.142)" fill="#333"/></g></g></g></svg>