<svg xmlns="http://www.w3.org/2000/svg" width="20" height="20" viewBox="0 0 20 20"><g transform="translate(-939.5 -20)"><path d="M10,0A10,10,0,1,1,0,10,10,10,0,0,1,10,0Z" transform="translate(939.5 20)" fill="#5b6fb4"/><g transform="translate(944 25.5)"><g transform="translate(0.5 0.5)"><path d="M15.153,8.592a.939.939,0,0,1-.241-.032l-.043-.014L9.328,6.519A.5.5,0,0,1,9,6.049V2.136a.5.5,0,0,1,.36-.48L14.921.03l.035-.009a.934.934,0,0,1,1.131.914V7.658A.936.936,0,0,1,15.153,8.592ZM10,5.7l5.087,1.862V1.023L10,2.511Z" transform="translate(-5.587 -0.5)" fill="#fff"/><path d="M4.805,17.12a.937.937,0,0,1-.228-.028l-.869-.217A.933.933,0,0,1,3,15.968v-2.7a.5.5,0,0,1,.5-.5H5.239a.5.5,0,0,1,.5.5v2.921A.935.935,0,0,1,4.805,17.12ZM4,15.917l.739.185V13.764H4Z" transform="translate(-2.196 -7.715)" fill="#fff"/><path d="M4.413,8.676H1.8A1.806,1.806,0,0,1,0,6.872v-1.3a1.806,1.806,0,0,1,1.8-1.8H4.413a.5.5,0,0,1,.5.5V8.176A.5.5,0,0,1,4.413,8.676ZM1.8,4.763a.805.805,0,0,0-.8.8v1.3a.805.805,0,0,0,.8.8H3.913V4.763Z" transform="translate(-0.5 -2.627)" fill="#fff"/></g></g></g></svg>