<svg xmlns="http://www.w3.org/2000/svg" width="30" height="30.093" viewBox="0 0 30 30.093"><g transform="translate(0 0)"><g transform="translate(0 0)"><path d="M15,30.093h0A15.047,15.047,0,1,1,30,15.047,15.074,15.074,0,0,1,15,30.093M15,.922a14.125,14.125,0,1,0,14.08,14.125A14.148,14.148,0,0,0,15,.922" transform="translate(0 0)" fill="#333"/><path d="M13.568,27.093a.462.462,0,0,1-.218-.055,16.124,16.124,0,0,1-6.526-7.021.461.461,0,0,1,.824-.414,15.309,15.309,0,0,0,5.921,6.5c3.843-2.173,6.809-6.711,7.585-11.637a.461.461,0,1,1,.911.143c-.835,5.295-4.084,10.171-8.278,12.427a.462.462,0,0,1-.218.055" transform="translate(1.431 2.975)" fill="#333"/><path d="M5.962,18.553a.46.46,0,0,1-.452-.373A16.519,16.519,0,0,1,5.2,15.041C5.2,9.011,8.768,2.717,13.682.076a.457.457,0,0,1,.436,0c4.2,2.255,7.442,7.119,8.273,12.391a.461.461,0,1,1-.911.143,16.491,16.491,0,0,0-7.58-11.6C9.38,3.565,6.123,9.421,6.123,15.041A15.572,15.572,0,0,0,6.415,18a.461.461,0,0,1-.365.54.446.446,0,0,1-.088.008" transform="translate(1.099 0.004)" fill="#333"/><path d="M25.132,12.963H21.322a.461.461,0,1,1,0-.922h3.811a.461.461,0,0,1,0,.922" transform="translate(4.407 2.544)" fill="#333"/><path d="M20.748,12.963H.462a.461.461,0,1,1,0-.922H20.748a.461.461,0,0,1,0,.922" transform="translate(0 2.544)" fill="#333"/><path d="M12.464,28.646a.461.461,0,0,1-.462-.46v-21a.461.461,0,0,1,.922,0v21a.46.46,0,0,1-.46.46" transform="translate(2.536 1.421)" fill="#333"/><path d="M12.464,4.089A.461.461,0,0,1,12,3.629V.46a.461.461,0,0,1,.922,0V3.629a.46.46,0,0,1-.46.46" transform="translate(2.536 0)" fill="#333"/><path d="M19.7,15.876a2.951,2.951,0,1,1,2.951-2.951A2.954,2.954,0,0,1,19.7,15.876m0-4.98a2.029,2.029,0,1,0,2.029,2.029A2.031,2.031,0,0,0,19.7,10.9" transform="translate(3.539 2.108)" fill="#333"/><path d="M6.829,20.4A2.951,2.951,0,1,1,9.779,17.45,2.954,2.954,0,0,1,6.829,20.4m0-4.98A2.029,2.029,0,1,0,8.858,17.45a2.031,2.031,0,0,0-2.029-2.029" transform="translate(0.819 3.063)" fill="#333"/><path d="M12.9,8.516a2.951,2.951,0,1,1,2.951-2.951A2.954,2.954,0,0,1,12.9,8.516m0-4.98a2.029,2.029,0,1,0,2.029,2.029A2.031,2.031,0,0,0,12.9,3.537" transform="translate(2.102 0.553)" fill="#333"/></g></g></svg>