<svg xmlns="http://www.w3.org/2000/svg" width="41.2" height="32.452" viewBox="0 0 41.2 32.452"><g transform="translate(0.6 0.601)"><g transform="translate(0 -0.001)"><path d="M20.746,72.673a1.016,1.016,0,0,1,.8.4,1.2,1.2,0,0,1,.193.854c0,.046-.007.1-.005.126a.444.444,0,0,0,.019.1c.015.013.04.033.059.049a1.826,1.826,0,0,1,.2.176,1.44,1.44,0,0,1,.461,1.027c0,.028,0,.055,0,.083a1.922,1.922,0,0,1-.132.862,1.838,1.838,0,0,1-.229.364,1.191,1.191,0,0,0-.094.135,1.01,1.01,0,0,0,0,.132,1.263,1.263,0,0,1-.171.8c-.04.062-.083.122-.124.179a1.786,1.786,0,0,0-.141.213,1.076,1.076,0,0,0,.031.248,2.425,2.425,0,0,1,.053.414,2.522,2.522,0,0,1-.089.663.778.778,0,0,0-.038.412c.038.111.04.117.154.174a.349.349,0,0,0,.089.009.431.431,0,0,0,.138-.02l.036-.016a2.538,2.538,0,0,1,.992-.278.951.951,0,0,1,.981.9.959.959,0,0,0,.025.113,2.1,2.1,0,0,1,.05.234.973.973,0,0,1-.184.718c-.01.015-.02.031-.031.048a.8.8,0,0,0-.094.3,1.982,1.982,0,0,0,.195.3c.035.048.069.1.1.14l.03.043a2.217,2.217,0,0,1,.2.333c.013.028.013.028.072.088.028.029.057.06.09.1l.056.063.012.014.033.017a1.466,1.466,0,0,1,.334.249c.026.024.051.047.069.061a3.184,3.184,0,0,1,.323.3,1.156,1.156,0,0,0,.272.233c.139-.022.467-.368.577-.483.048-.051.093-.1.136-.141l.055-.057a1.286,1.286,0,0,1,.912-.5.9.9,0,0,1,.47.134.867.867,0,0,1,.162.127l.01-.019.045-.082a1.527,1.527,0,0,1,.882-.842q0-.016,0-.034a.226.226,0,0,0-.016-.069c-.007-.025-.014-.052-.022-.081a.9.9,0,0,1-.021-.106.767.767,0,0,1-.11-.194,2.175,2.175,0,0,1-.017-1.1,1.093,1.093,0,0,1,.433-.573l.045-.034a.508.508,0,0,0,.133-.179c0-.008.013-.037.02-.058a1.1,1.1,0,0,1,.707-.763l.066-.03.033-.019a1.013,1.013,0,0,1,.526-.169.767.767,0,0,1,.23.035,1.026,1.026,0,0,1,.64.878,2.968,2.968,0,0,1-.053,1.045.611.611,0,0,0,.053.3c.023.075.05.161.073.257.017.074.037.148.057.223.029.108.058.22.083.336a1.11,1.11,0,0,1-.094.75,1,1,0,0,1,.685.593l0,.008a1.551,1.551,0,0,1,.157.622.781.781,0,0,0,.026.174,1.219,1.219,0,0,0,.073.1,1.169,1.169,0,0,1,.287.708c0,.122-.007.241-.014.356a3.365,3.365,0,0,0-.009.392,1.248,1.248,0,0,0,.183.2l.078.076a1.965,1.965,0,0,0,.366.239c.066.037.135.076.2.118.1.062.2.126.3.188.115.074.224.143.335.21a.719.719,0,0,0,.307.088c.065.01.14.022.223.039a1.3,1.3,0,0,1,.987,1.046l.017.026a1.306,1.306,0,0,1,.146.259,1.118,1.118,0,0,1,.074.466c0,.02,0,.04,0,.053a1.67,1.67,0,0,0,.052.164,1.234,1.234,0,0,1,.058.91.879.879,0,0,1-.876.533c-.081,0-.157-.006-.219-.011-.034,0-.072-.006-.091-.006h-.01c-.213,0-.233.034-.24.047a.87.87,0,0,0-.051.105,1.607,1.607,0,0,1,.1.2,2.837,2.837,0,0,1,.172.56,1.58,1.58,0,0,1,.011.35c0,.028,0,.065,0,.085s.015.033.023.049a1.263,1.263,0,0,1,.126.388.9.9,0,0,1,.008.113.849.849,0,0,1,.061.1,1.161,1.161,0,0,1,.109.755,1.331,1.331,0,0,0-.012.135,1.94,1.94,0,0,1-.046.362,1.584,1.584,0,0,1-.254.518,1.289,1.289,0,0,0-.076.121.818.818,0,0,0-.029.1,1.755,1.755,0,0,1-.1.32,2.051,2.051,0,0,1-.354.513,1.293,1.293,0,0,0-.16.207c0,.009-.014.031-.021.05a.961.961,0,0,1-.495.555,1.378,1.378,0,0,1-.459.1c-.028,0-.071.007-.085.01a1.317,1.317,0,0,1-.247.021c-.073,0-.142,0-.208-.008l0,.015c.008.013.027.039.043.061l.021.03a1.945,1.945,0,0,1,.175.314.911.911,0,0,0,.066.126.954.954,0,0,1,.218.583v0a1.187,1.187,0,0,1,.146.2l.044.078a1.288,1.288,0,0,1,.128,1.336,4.349,4.349,0,0,1-.26.411,1.467,1.467,0,0,1-.33.334c-.03.024-.057.044-.081.066l-.019.019a.764.764,0,0,1-.568.252.976.976,0,0,1-.165-.015.734.734,0,0,1-.652-.785s0-.007,0-.011l-.007-.019a1.133,1.133,0,0,1-.076-.33c-.006-.084,0-.159,0-.225,0-.026,0-.051,0-.076,0-.047,0-.095,0-.142,0-.027,0-.054,0-.08l-.01-.008a.8.8,0,0,0-.243-.148c-.018-.008-.06-.023-.094-.035a1.684,1.684,0,0,1-.316-.138,1.459,1.459,0,0,1-.441-.449c-.025-.036-.061-.087-.083-.112H30.1c-.039,0-.094.006-.151.012a2.528,2.528,0,0,1-.275.019,1.248,1.248,0,0,1-.338-.043,1.019,1.019,0,0,1-.446-.282l-.032-.03a1.258,1.258,0,0,1-.378-.351.618.618,0,0,0-.061-.073,1.43,1.43,0,0,0-.491-.316,3.042,3.042,0,0,1-.909-.479c-.06-.042-.122-.085-.187-.128-.087-.058-.17-.116-.25-.173a2.667,2.667,0,0,0-.5-.3,2.683,2.683,0,0,1-.484-.273,1.489,1.489,0,0,0-.3-.173,2.305,2.305,0,0,0-.249-.064,2.783,2.783,0,0,1-.482-.14l-.031.02a1.136,1.136,0,0,1-.612.233H23.9a.748.748,0,0,1-.569-.3,1.6,1.6,0,0,1-.212-1.135,1.3,1.3,0,0,1,.066-.216,1.442,1.442,0,0,1-.169-.025,1.4,1.4,0,0,0-.151-.018,2,2,0,0,1-.388-.062,2.939,2.939,0,0,1-.279-.1,1.612,1.612,0,0,0-.187-.066.213.213,0,0,0-.046,0,1.809,1.809,0,0,0-.516.13l-.167.061a2.325,2.325,0,0,0-.526.236,4.65,4.65,0,0,1-.881.484l-.133.052a.827.827,0,0,0-.2.092,2.737,2.737,0,0,1-.49.3l-.019.009a1.979,1.979,0,0,1-.773.236h-.037a1.526,1.526,0,0,1-.325-.042c-.032-.007-.079-.017-.1-.018a2.368,2.368,0,0,1-.752-.1,3.074,3.074,0,0,1-.973-.554.97.97,0,0,0-.267-.178h0l-.056,0a1.484,1.484,0,0,1-.016.4.79.79,0,0,1-.782.654c-.021,0-.051,0-.061.007a1.728,1.728,0,0,1-.395.05,1.05,1.05,0,0,1-1.041-.79c-.035.092-.069.189-.1.294a2.541,2.541,0,0,1-.649,1.069,2.837,2.837,0,0,1-1,.572,1.3,1.3,0,0,0-.465.443c-.008.012-.021.032-.036.056-.162.258-.433.689-.911.689a.74.74,0,0,1-.548-.246,1.185,1.185,0,0,1-.237-.489c-.007-.025-.014-.049-.021-.067-.022-.053-.042-.107-.062-.16s-.038-.1-.057-.145c-.066.037-.138.082-.214.129a3.207,3.207,0,0,1-.61.32.857.857,0,0,1-.294.055.758.758,0,0,1-.658-.412c-.012-.02-.022-.036-.031-.049l-.043-.059a1.8,1.8,0,0,1-.3-.56,1.222,1.222,0,0,1,.034-.876l.009-.021c-.055-.03-.109-.057-.144-.075-.059-.03-.114-.058-.163-.086a3.644,3.644,0,0,1-.789-.642l-.148-.15c-.065-.066-.129-.132-.2-.2a1.061,1.061,0,0,0-.241-.146,3.2,3.2,0,0,1-.29-.161.415.415,0,0,0-.23-.068.761.761,0,0,0-.558.314c-.042.054-.083.1-.124.151s-.1.116-.129.163a.933.933,0,0,0-.05.106,1.5,1.5,0,0,1-.248.419c-.09.1-.176.212-.268.329a6.054,6.054,0,0,1-.505.587c-.04.039-.081.078-.123.118a1.552,1.552,0,0,0-.264.287,1.029,1.029,0,0,0-.049.129,2.375,2.375,0,0,1-.085.224,1.735,1.735,0,0,1-.373.512.694.694,0,0,0-.131.157c-.013.032-.024.066-.035.1-.068.2-.247.729-.794.729A.913.913,0,0,1,.7,96.785a1.45,1.45,0,0,1-.432-1.459,3.655,3.655,0,0,1,.185-.46,2.048,2.048,0,0,0,.139-.354,1.669,1.669,0,0,0,0-.759,3.475,3.475,0,0,1-.024-.8c0-.087.009-.169.009-.243a.9.9,0,0,0-.054-.284L.5,92.361a1.26,1.26,0,0,1-.027-.126,1.276,1.276,0,0,1-.165-.173C.263,92,.2,91.933.126,91.859a2.288,2.288,0,0,1-.489-.666A3.093,3.093,0,0,1-.6,89.95a1.339,1.339,0,0,1,.1-.6.875.875,0,0,1,.778-.493c.115-.007.229-.1.419-.343.033-.042.063-.078.091-.11s.034-.04.041-.049l0-.011c.026-.08.055-.153.082-.223A1.588,1.588,0,0,0,1,87.868a.235.235,0,0,0,0-.143c-.058-.155-.1-.3-.145-.442C.841,87.221.822,87.159.8,87.1c-.134-.422-.244-.739-.357-1.027-.035-.091-.076-.184-.118-.283a5.662,5.662,0,0,1-.242-.633l-.006-.007a1.836,1.836,0,0,1-.133-.164.927.927,0,0,1-.094-.935c.031-.087.062-.185.095-.288a4.813,4.813,0,0,1,.3-.774A1.263,1.263,0,0,1,1.428,82.2h.039a1.033,1.033,0,0,0,.329-.044.614.614,0,0,0,.144-.082c.041-.027.088-.058.143-.091a2.245,2.245,0,0,1,.277-.141l0,0A.81.81,0,0,1,2,81.194a1.07,1.07,0,0,1,.32-.714,1.277,1.277,0,0,1,.959-.352,3.567,3.567,0,0,1,.37.023,2.948,2.948,0,0,1,.373.069c.054.013.1.024.149.033.061.012.138.018.219.024a2.877,2.877,0,0,1,.391.051c.086.019.165.04.241.06a1.191,1.191,0,0,0,.407.066,2.138,2.138,0,0,0,.218-.049,2.275,2.275,0,0,1,.581-.093,1.265,1.265,0,0,1,.4.063,2.7,2.7,0,0,1,1.269,1.088l.091.121a2.822,2.822,0,0,1,.18.276c.022.038.043.072.062.1a.949.949,0,0,1,.366-.379.8.8,0,0,1,.4-.113.754.754,0,0,1,.4.121c.116-.054.236-.125.361-.2a3.8,3.8,0,0,1,.776-.377,2.505,2.505,0,0,1,.722-.093,2.823,2.823,0,0,1,.629.065L11.94,81l.035.009L12,81c.114-.056.231-.115.322-.17.008-.006.039-.034.062-.055a1.3,1.3,0,0,1,.4-.272,1.568,1.568,0,0,1,.481-.095l.067-.006a1.611,1.611,0,0,1,.1-.143l0-.109.68-.68a1.369,1.369,0,0,0,.055-.149,1.8,1.8,0,0,1,.191-.43,1.76,1.76,0,0,1,.264-.307l.054-.053v0a1.066,1.066,0,0,1,0-.795,1.258,1.258,0,0,1,1.222-.652l.095,0c.012-.013.029-.033.052-.062a4.564,4.564,0,0,1,.436-.46c.074-.071.143-.137.209-.206a2.2,2.2,0,0,0,.347-.939l.007-.032a1.239,1.239,0,0,1,.73-.945,1.105,1.105,0,0,1,.306-.1c-.009-.041-.018-.085-.024-.133-.068-.52.216-.942.844-1.253a1.1,1.1,0,0,1,.49-.121.866.866,0,0,1,.6.234A.9.9,0,0,1,20.746,72.673Zm-.722,2.053a.953.953,0,0,1-.661-.311l-.043-.045a1.075,1.075,0,0,1-.034.487.956.956,0,0,1-.918.651c-.028,0-.065.006-.086.01s-.035.019-.043.024a.761.761,0,0,0-.024.09l-.007.031a3.072,3.072,0,0,1-.653,1.512c-.083.087-.166.166-.246.243a3.605,3.605,0,0,0-.327.341,1.185,1.185,0,0,1-1.065.518l-.062,0a1.031,1.031,0,0,1,.026.453,1.263,1.263,0,0,1-.419.705.967.967,0,0,0-.1.1,1.118,1.118,0,0,0-.059.156,1.488,1.488,0,0,1-.315.588l-.012.012-.407.407a1.384,1.384,0,0,1-.184.284l-.03.039a.866.866,0,0,1-.659.526,2,2,0,0,1-.336.048c-.036,0-.086.007-.117.011l-.05.045a1.555,1.555,0,0,1-.251.2c-.133.08-.279.153-.408.217l-.051.025a1.079,1.079,0,0,1-.489.123,1.373,1.373,0,0,1-.347-.052l-.048-.012a1.661,1.661,0,0,0-.351-.032,1.364,1.364,0,0,0-.357.036,2.8,2.8,0,0,0-.533.268,4.88,4.88,0,0,1-.535.285,1.031,1.031,0,0,1-.7.071c-.014.018-.029.036-.045.054a1.621,1.621,0,0,1-.713.405,1.037,1.037,0,0,1-.249.033.807.807,0,0,1-.637-.326c-.014-.017-.03-.036-.051-.058a2.182,2.182,0,0,1-.3-.42,1.816,1.816,0,0,0-.1-.164l-.1-.13a1.748,1.748,0,0,0-.685-.665.084.084,0,0,0-.021,0,1.42,1.42,0,0,0-.282.055,3.07,3.07,0,0,1-.355.076,1.58,1.58,0,0,1-.211.014,2.051,2.051,0,0,1-.469-.059.735.735,0,0,1,.057.283.942.942,0,0,1-.379.7l-.013.011a1.325,1.325,0,0,1-.918.308c-.083,0-.16,0-.235-.007s-.118-.006-.167-.006h-.01a.878.878,0,0,0-.544.126c-.034.02-.065.041-.1.061a1.68,1.68,0,0,1-.446.226,2.205,2.205,0,0,1-.689.1H1.433a.3.3,0,0,0-.041,0,.8.8,0,0,0-.086.14,3.914,3.914,0,0,0-.215.579c-.027.086-.055.175-.085.261a1.067,1.067,0,0,1,.228.424,4.636,4.636,0,0,0,.2.505c.045.1.091.211.133.321.122.313.24.652.382,1.1.022.069.043.137.063.2.039.13.076.252.121.373a1.428,1.428,0,0,1,.055.776,2.5,2.5,0,0,1-.147.471c-.023.058-.044.112-.06.16a1.268,1.268,0,0,1-.274.468c-.018.021-.037.043-.058.07A1.923,1.923,0,0,1,.6,90.016a1.82,1.82,0,0,0,.139.7A1.568,1.568,0,0,0,1,91.032a3.877,3.877,0,0,1,.258.29l.033.03a1.156,1.156,0,0,1,.245.285,1.1,1.1,0,0,1,.122.382l.005.029.013.045a2,2,0,0,1,.1.628c0,.1-.006.194-.011.289a2.6,2.6,0,0,0,.006.527,2.93,2.93,0,0,1,.038.988,2.786,2.786,0,0,1,.422-.467c.035-.033.07-.066.1-.1a5.073,5.073,0,0,0,.4-.475c.1-.124.2-.252.309-.378a.994.994,0,0,0,.049-.1,1.765,1.765,0,0,1,.156-.3,3.09,3.09,0,0,1,.207-.266c.034-.04.066-.078.092-.112a1.942,1.942,0,0,1,1.507-.779,1.624,1.624,0,0,1,.877.258c.052.034.117.066.185.1a2.029,2.029,0,0,1,.54.36c.071.07.141.141.211.212l.14.142a2.517,2.517,0,0,0,.537.449c.021.012.065.034.107.056.346.175.926.467.911,1.047a1.13,1.13,0,0,1-.189.552l-.026.044a.39.39,0,0,0,.013.053.385.385,0,0,0,.051.1l.1-.063c.1-.062.2-.125.311-.184l.058-.039a1.156,1.156,0,0,1,.66-.253.787.787,0,0,1,.423.123,1.15,1.15,0,0,1,.422.592c.009.023.022.055.027.066l.013.028a2.061,2.061,0,0,1,.842-.645,1.736,1.736,0,0,0,.615-.332,1.343,1.343,0,0,0,.328-.576A4.587,4.587,0,0,1,12.7,92.56l.025-.049a1.033,1.033,0,0,1,.478-.517.941.941,0,0,1,.39-.082.844.844,0,0,1,.715.345,1.257,1.257,0,0,1,.182.627c0,.033.007.082.01.1l.012.052c.01.044.021.089.032.133a.961.961,0,0,1,.944-.946l.081-.009a1.981,1.981,0,0,1,.236-.017,1.185,1.185,0,0,1,.418.075,2.074,2.074,0,0,1,.618.38,1.88,1.88,0,0,0,.558.331,1.108,1.108,0,0,0,.34.044H17.8a1.609,1.609,0,0,1,.345.045l.077.015a1.647,1.647,0,0,0,.3-.12l.019-.009a1.561,1.561,0,0,0,.286-.18,1.879,1.879,0,0,1,.486-.251l.1-.04a3.431,3.431,0,0,0,.65-.357,3.289,3.289,0,0,1,.81-.383l.151-.055a2.739,2.739,0,0,1,.938-.206,1.4,1.4,0,0,1,.324.036,2.537,2.537,0,0,1,.349.117c.062.024.12.047.167.061a1.08,1.08,0,0,0,.163.021,2.334,2.334,0,0,1,.3.04,1.169,1.169,0,0,0,.118.009,1.187,1.187,0,0,1,.8.277.924.924,0,0,1,.24,1.092.894.894,0,0,1,.136-.011,1.133,1.133,0,0,1,.458.112,1.71,1.71,0,0,0,.292.081,3.347,3.347,0,0,1,.38.1,2.457,2.457,0,0,1,.579.31,1.709,1.709,0,0,0,.271.16,3.657,3.657,0,0,1,.739.438c.075.053.145.1.215.149s.143.1.211.144a1.978,1.978,0,0,0,.567.314,2.589,2.589,0,0,1,.96.582,1.658,1.658,0,0,1,.2.228c.013.017.03.039.039.049a1.167,1.167,0,0,1,.238.186c.033,0,.071-.006.112-.01a2.548,2.548,0,0,1,.278-.019,1.205,1.205,0,0,1,.513.106,1.4,1.4,0,0,1,.563.518c.026.038.062.088.082.11l.093.034c.057.02.121.043.184.071a2.272,2.272,0,0,1,.288.149c-.021-.041-.04-.081-.057-.117a1.012,1.012,0,0,0-.068-.13l-.019-.027a1.273,1.273,0,0,1-.239-.5,1.16,1.16,0,0,1,.4-1.325,1.126,1.126,0,0,1,.608-.152c.082,0,.16,0,.23.009.054,0,.1.007.143.007h.028c.063-.012.126-.018.182-.024.009-.02.019-.041.03-.063a2.229,2.229,0,0,1,.322-.446,1.14,1.14,0,0,0,.164-.215.816.816,0,0,0,.031-.11,1.629,1.629,0,0,1,.116-.348,2.136,2.136,0,0,1,.161-.268,1.06,1.06,0,0,0,.084-.136,1.229,1.229,0,0,0,.012-.141,2.268,2.268,0,0,1,.028-.272.9.9,0,0,1-.152-.275.885.885,0,0,1-.039-.33l-.015-.031a1.536,1.536,0,0,1-.095-.237,1.356,1.356,0,0,1-.04-.479c0-.034,0-.079,0-.1a2.1,2.1,0,0,0-.105-.314c0-.008-.019-.036-.03-.056a1.129,1.129,0,0,1-.168-.534,1.6,1.6,0,0,1,.231-.753,1.356,1.356,0,0,1,1.227-.645,1.361,1.361,0,0,1-.06-.309c0-.062,0-.114,0-.156v-.009l-.008-.011a1.134,1.134,0,0,1-.182-.37.578.578,0,0,0-.087-.21c-.052-.01-.1-.018-.155-.026a1.869,1.869,0,0,1-.74-.244c-.126-.075-.247-.153-.364-.227-.1-.061-.187-.119-.279-.175-.05-.031-.107-.063-.167-.1a2.828,2.828,0,0,1-.617-.429l-.066-.064a1.48,1.48,0,0,1-.55-.978,4.288,4.288,0,0,1,.008-.551c0-.073.009-.143.011-.209l-.049-.067a1.88,1.88,0,0,1-.182-.282,1.588,1.588,0,0,1-.149-.608c0-.046-.01-.11-.017-.146h-.046a1.084,1.084,0,0,1-.388-.067.9.9,0,0,1-.582-.57.992.992,0,0,1,.179-.877l.033-.049c.03-.044.069-.1.087-.134-.019-.084-.042-.171-.066-.263s-.044-.167-.065-.253c-.013-.057-.032-.116-.051-.178a1.692,1.692,0,0,1-.087-.87l0-.017a1.653,1.653,0,0,1-.366.424c-.026.021-.053.042-.08.063l-.012.009a1.772,1.772,0,0,0-.005.231.757.757,0,0,1,.114.191.937.937,0,0,1,.063.3v.006l.009.034a1.321,1.321,0,0,1,.06.4,1.447,1.447,0,0,1-.169.723.832.832,0,0,1-.638.441l-.045.009a1.047,1.047,0,0,0-.176.267l-.053.1a2.7,2.7,0,0,0-.149.3c-.254.609-.624.737-.891.737a.778.778,0,0,1-.168-.018.88.88,0,0,1-.6-.447h0c-.037.037-.076.079-.118.122a2.172,2.172,0,0,1-1.454.858,1.16,1.16,0,0,1-.491-.109,2.113,2.113,0,0,1-.632-.486,2.194,2.194,0,0,0-.2-.192c-.059-.046-.108-.092-.148-.129-.024-.022-.057-.053-.071-.063a1.13,1.13,0,0,1-.394-.306L23.5,83.9c-.023-.025-.044-.047-.063-.067a1.4,1.4,0,0,1-.293-.409,1.193,1.193,0,0,0-.1-.16L23,83.212c-.025-.037-.053-.075-.082-.115a2.366,2.366,0,0,1-.376-.666,1.731,1.731,0,0,1,.217-1.257l.036-.058-.005-.019c-.006-.023-.013-.048-.019-.075-.119.04-.255.1-.328.134l-.038.017a1.573,1.573,0,0,1-.626.123,1.411,1.411,0,0,1-.62-.133,1.379,1.379,0,0,1-.758-.858,1.834,1.834,0,0,1,0-1.08,1.5,1.5,0,0,0,.057-.357,1.451,1.451,0,0,0-.032-.217A1.924,1.924,0,0,1,20.4,78a1.655,1.655,0,0,1,.356-.742c.027-.038.053-.074.074-.1,0-.026,0-.071,0-.106a1.689,1.689,0,0,1,.019-.436,1.479,1.479,0,0,1,.315-.623,1.115,1.115,0,0,0,.09-.129,1.021,1.021,0,0,0,.027-.351c0-.031,0-.062,0-.093,0-.051,0-.071-.136-.216a.954.954,0,0,0-.074-.063,1.285,1.285,0,0,1-.367-.419,1.336,1.336,0,0,1-.092-.231.946.946,0,0,1-.216.15A.8.8,0,0,1,20.024,74.726Z" transform="translate(0 -69.699)" fill="#333"/><path d="M689.384,614.486a1.1,1.1,0,0,1,.539.147,2.585,2.585,0,0,1,.308.207,1.8,1.8,0,0,0,.156.109l.046.026a1.07,1.07,0,0,1,.667,1.035l-.029.241-.189.153a.877.877,0,0,1-.557.2,1.4,1.4,0,0,1-.7-.231c-.029-.017-.069-.04-.086-.048a1.216,1.216,0,0,0-.494-.124h-.172l-.149-.091-2.364-1.477,2.229,0a.7.7,0,0,0,.277-.034A1.4,1.4,0,0,1,689.384,614.486Z" transform="translate(-654.886 -585.089)" fill="#333"/><path d="M620.255,594.949l.216,0h.768l-.373,1.491-.117.117-.04.039a.936.936,0,0,1-.059.422.83.83,0,0,1-.2.289,1.007,1.007,0,0,1-.053.137.994.994,0,0,1-.866.6h-.016l-.543-.01-.044-.541a1.143,1.143,0,0,1,.306-.8l.052-.069c-.005-.02-.012-.043-.018-.063-.012-.041-.025-.087-.038-.14,0-.013-.009-.032-.015-.054a1.208,1.208,0,0,1-.07-.578.755.755,0,0,1,.34-.5l.026-.029a.82.82,0,0,1,.653-.312Z" transform="translate(-589.31 -566.505)" fill="#333"/><path d="M569.159,626.456l.3.044a1.066,1.066,0,0,1,.926.822c.063.6-.613.948-.931,1.014a1.51,1.51,0,0,1-.3.028,1.436,1.436,0,0,1-.4-.052.743.743,0,0,1-.556-.762.809.809,0,0,1,.559-.7Z" transform="translate(-541.062 -596.511)" fill="#333"/><path d="M494.643,511.183a.787.787,0,0,1,.565.245,1.137,1.137,0,0,1,.3.784,1.355,1.355,0,0,1-.528.893l-.022.021c-.028.026-.058.056-.089.087a2.281,2.281,0,0,1-.505.411,2.316,2.316,0,0,1-.77.219.675.675,0,0,1-.2-.031c-.528-.168-.609-1.007-.61-1.015a.781.781,0,0,1,.431-.76,1,1,0,0,1,.175-.069l.3-.449.193.094a.97.97,0,0,1,.694-.426Q494.609,511.183,494.643,511.183Z" transform="translate(-469.319 -486.824)" fill="#333"/><path d="M168.611,218.619a.823.823,0,0,1-.587-.2.714.714,0,0,1-.213-.717,1,1,0,0,1,.712-.648,1.347,1.347,0,0,1,.31-.032c.046,0,.091,0,.137,0l.088,0a.274.274,0,0,0,.039,0,.65.65,0,0,0,.264-.1l.051-.042a1.286,1.286,0,0,1,.472-.279.832.832,0,0,1,.9.244.793.793,0,0,1,.14.689,1.67,1.67,0,0,1-1.408,1.059.859.859,0,0,1-.16-.015l-.24-.04A1.623,1.623,0,0,1,168.611,218.619Z" transform="translate(-160.175 -206.575)" fill="#333"/><path d="M143.279,1.357l-.446-.136-.048.012a1.428,1.428,0,0,1-.319.029h-.029a.947.947,0,0,1-.818-.319.837.837,0,0,1-.1-.771,1.135,1.135,0,0,1,.959-.773.921.921,0,0,1,.679.28l.431.153Z" transform="translate(-135.14 0.001)" fill="#333"/><path d="M694.208,525.115a1,1,0,0,1-.162-.013.734.734,0,0,1-.685-.688c-.05-.015-.114-.029-.179-.042a2.479,2.479,0,0,1-.415-.115.512.512,0,0,0-.064-.021l-.008.012a1.15,1.15,0,0,1-1.1.656.912.912,0,0,1-.246-.07.822.822,0,0,1-.23-.009.674.674,0,0,1-.068-.017l-.055.01a1.307,1.307,0,0,1-1.367-.792,1.275,1.275,0,0,1,.088-1.071,1.522,1.522,0,0,0,.07-.167c.02-.061.035-.132.052-.206a1.729,1.729,0,0,1,.349-.8,1.617,1.617,0,0,1,1.165-.71l.109-.006a2.331,2.331,0,0,1,.838.052,1.967,1.967,0,0,1,.807.59,1.789,1.789,0,0,0,.259.244l.275-.006.363.458c.1-.011.22-.038.278-.05l.124-.025a.608.608,0,0,0,.2-.138,1.9,1.9,0,0,1,.489-.323l.05-.02a.8.8,0,0,1,.158-.151,1.78,1.78,0,0,1,.722-.255.914.914,0,0,1,.9.3.875.875,0,0,1,.088.893,1.606,1.606,0,0,1-1.034.881,2.185,2.185,0,0,0-.445.226.929.929,0,0,1-.087.628A1.523,1.523,0,0,1,694.208,525.115Zm-2.8-1.491a.789.789,0,0,1,.132.011.885.885,0,0,1,.107.025l.04-.061.057-.086a1.1,1.1,0,0,1,1.148-.463,2.131,2.131,0,0,1-.655-.523,1.373,1.373,0,0,0-.3-.271,2.268,2.268,0,0,0-.4,0l-.128.007c-.067,0-.2.164-.3.282a.741.741,0,0,0-.1.291c-.021.094-.044.2-.081.314a2.563,2.563,0,0,1-.125.306c-.02.043-.047.1-.056.13a.152.152,0,0,0,.047.032.751.751,0,0,1,.338-.05.678.678,0,0,1,.217.054Z" transform="translate(-656.489 -496.209)" fill="#333"/></g></g></svg>