<svg xmlns="http://www.w3.org/2000/svg" width="127.4" height="540.28" viewBox="0 0 127.4 540.28"><g transform="translate(-1232.6 -212.72)"><g transform="translate(-30 20)"><g transform="translate(85 23)"><path d="M37.08-7.72a2.211,2.211,0,0,1,.64,1.56,1.863,1.863,0,0,1-.46,1.28,1.549,1.549,0,0,1-1.22.52,3.607,3.607,0,0,1-1.5-.38,7.988,7.988,0,0,1-1.5-.9q-1.72-1.4-3.88-2.96l-.88,1.4a16.842,16.842,0,0,1-6.4,5.72A18.272,18.272,0,0,1,14.12.4q-.6,0-.6-.2,0-.12.26-.2t.62-.16a16.767,16.767,0,0,0,6-2.94,16.347,16.347,0,0,0,4.76-6.14l.68-1.48a21.342,21.342,0,0,0-9.12-2.72q-1.12,2.28-2.36,5.4a16.051,16.051,0,0,1-2.6,4.46A4.339,4.339,0,0,1,8.4-2,3.365,3.365,0,0,1,5.76-3.18,4.4,4.4,0,0,1,4.72-6.2a7.527,7.527,0,0,1,2.16-5,11.7,11.7,0,0,1,3.3-2.62,13.079,13.079,0,0,1,4.18-1.38q2.04-3.6,4.32-7.16.36-.56,1.4-1.96a19.563,19.563,0,0,0,1.2-1.74,2.256,2.256,0,0,0,.36-1.1.914.914,0,0,0-.26-.64.744.744,0,0,0-.54-.28,2.039,2.039,0,0,0-1.04.52,9.451,9.451,0,0,0-1.12,1.16q-.6.72-.76.92-1,1.2-1.04,1.24a2.705,2.705,0,0,1-1.8,1.08,3.837,3.837,0,0,1-2.36-1.14,7.746,7.746,0,0,1-1.96-2.46,2.126,2.126,0,0,1-.2-.96q0-.36.24-.36a1.489,1.489,0,0,1,.52.24,2.679,2.679,0,0,0,.98.44,5.183,5.183,0,0,0,1.3.16,4.69,4.69,0,0,0,1.68-.32q.84-.32,2.24-1,1.52-.72,1.96-.88.24-.08.88-.32A3.34,3.34,0,0,1,21.52-30a4.789,4.789,0,0,1,2.6,1.08q2.12,1.44,2.12,2.68A3.327,3.327,0,0,1,24.84-24a30.852,30.852,0,0,0-3.96,3.96,31.462,31.462,0,0,0-3.16,4.64,28.8,28.8,0,0,1,9.04,2.12,11.759,11.759,0,0,0,.64-3.52,4.506,4.506,0,0,0-1.92-4.04q-.32-.24-.32-.44,0-.16.36-.16.32.04,1.06.2a11.167,11.167,0,0,1,1.5.44,7.513,7.513,0,0,1,2.08,1.08q1.28.84,1.28,3.56a8.99,8.99,0,0,1-.16,1.76,16.151,16.151,0,0,0,1.56,2.5,20.007,20.007,0,0,0,1.8,2.1,8.882,8.882,0,0,0,1.16.96A7.279,7.279,0,0,1,37.08-7.72ZM10.44-8.24q.48-.92,2.32-4.16l.52-.92A11.026,11.026,0,0,0,9.54-12.1,6.142,6.142,0,0,0,7.08-9.68a3.785,3.785,0,0,0-.6,2.04A1.837,1.837,0,0,0,6.8-6.5a1.131,1.131,0,0,0,.96.42,2.22,2.22,0,0,0,1.42-.58A5.526,5.526,0,0,0,10.44-8.24Zm20.6-5a12.973,12.973,0,0,1-.48,1.6q.88.4,2.12,1.08ZM37.36,30.4q.12,0,.12.32a2.782,2.782,0,0,1-.2,1Q33.44,44.08,27.12,44.08a5.254,5.254,0,0,1-3.1-.86,5.061,5.061,0,0,1-1.78-2.16,6.571,6.571,0,0,1-.56-2.62,23.28,23.28,0,0,1,.28-3.12q.24-2.16.24-2.84a7.975,7.975,0,0,0-.64-3.4,2.508,2.508,0,0,0-2.52-1.36q-2.68,0-5.76,3.2a9.523,9.523,0,0,0-2.48,4.04,24.085,24.085,0,0,0-.8,4.68,8.751,8.751,0,0,1-.08,1.04,7.536,7.536,0,0,1-.7,2.8,1.531,1.531,0,0,1-1.38.88A2.473,2.473,0,0,1,5.8,43.22a4.691,4.691,0,0,1-.84-2.86,7.735,7.735,0,0,1,.24-1.88,25.391,25.391,0,0,1,2.84-6.66q1.92-3.18,5.52-8.14,2.04-2.84,4.2-6,.08-.12.46-.66A5.425,5.425,0,0,0,18.8,16a2.39,2.39,0,0,0,.2-.92,1.6,1.6,0,0,0-.32-.96,2.512,2.512,0,0,0-.94-.88q-.5-.24-.5-.36,0-.2.42-.36a2.623,2.623,0,0,1,.94-.16,4.467,4.467,0,0,1,1.74.48,5.2,5.2,0,0,1,1.88,1.48,3.782,3.782,0,0,1,.82,2.48q0,2.6-3.52,5.12a25.5,25.5,0,0,0-3.74,3.12,17.387,17.387,0,0,0-2.54,3.4q-.6,1.04-1.24,2.44Q16.4,26,20.48,26a5.65,5.65,0,0,1,3.34.92,5.3,5.3,0,0,1,1.88,2.3,7.215,7.215,0,0,1,.58,2.82,14.14,14.14,0,0,1-.08,1.48q-.08.76-.12,1.04a18.989,18.989,0,0,0-.24,2.76,3.051,3.051,0,0,0,.66,2.1,2.413,2.413,0,0,0,1.9.74,4.721,4.721,0,0,0,2.38-.86,12.06,12.06,0,0,0,2.92-2.82,23.908,23.908,0,0,0,2.9-5Q37.08,30.4,37.36,30.4ZM20.52,62.24a21.931,21.931,0,0,1-4.88,2.36q-1.08,3.04-3.18,8.54T9.84,79.8a3.431,3.431,0,0,1-1.18,1.46,2.6,2.6,0,0,1-1.46.5,1.282,1.282,0,0,1-1.3-.92,7.8,7.8,0,0,1-.34-2.6,2.689,2.689,0,0,1,.2-1.14,6.092,6.092,0,0,1,.8-1.14l.88-1.08a39.3,39.3,0,0,0,4.84-9.44h-.2a4.514,4.514,0,0,1-3.46-1.3,9.045,9.045,0,0,1-1.78-2.62,2.124,2.124,0,0,1-.2-.68q0-.16.12-.16.16,0,.56.36a4.163,4.163,0,0,0,1.62.88,6.974,6.974,0,0,0,2.1.32,15.506,15.506,0,0,0,2.16-.28,12.993,12.993,0,0,0,.16-1.64,2.944,2.944,0,0,0-.96-2.56,7.268,7.268,0,0,0-.88-.6q-.48-.28-.48-.4,0-.2.42-.36a3.146,3.146,0,0,1,1.1-.16,6.04,6.04,0,0,1,1.92.32,3.187,3.187,0,0,1,2.28,2h.88l1.52-.16a6.442,6.442,0,0,1,.96-.12,2.012,2.012,0,0,1,1.24.36,1.431,1.431,0,0,1,.68,1.28,2.212,2.212,0,0,1-.48,1.3A3.95,3.95,0,0,1,20.52,62.24Zm-3.64-2.68A7,7,0,0,1,16.72,61l.48-.24q.8-.44.8-.8,0-.28-.6-.52l-.52-.2Zm10.28,7.88a2.228,2.228,0,0,0-2.02,1.16,6.286,6.286,0,0,0-.7,3.24,40.5,40.5,0,0,0,.8,6.52l.28,1.76a16.051,16.051,0,0,1,5.4,2.08,4.277,4.277,0,0,1,1.28,1.26,2.584,2.584,0,0,1,.44,1.38,2.04,2.04,0,0,1-.48,1.34,1.5,1.5,0,0,1-1.2.58,3.1,3.1,0,0,1-1.44-.4,22.472,22.472,0,0,1-2-1.24q-1.04-.64-1.56-.92a4.91,4.91,0,0,1-1.9,3.96,7.063,7.063,0,0,1-4.54,1.48,8.2,8.2,0,0,1-2.94-.54,5.5,5.5,0,0,1-2.32-1.62,3.872,3.872,0,0,1-.9-2.56,4.331,4.331,0,0,1,2.38-3.94,11.175,11.175,0,0,1,5.7-1.38h.48q0-4,.12-5.8a11.4,11.4,0,0,1,.8-3.74,5.941,5.941,0,0,1,1.98-2.44,13.965,13.965,0,0,1,3.66-1.78q.6-.2.6-.64,0-.92-2.12-2.56l-.24-.24q-.16-.16-.16-.24,0-.2.48-.2a3.554,3.554,0,0,1,1.12.2,9.642,9.642,0,0,1,4.1,1.78,3.913,3.913,0,0,1,1.86,3.14,2.383,2.383,0,0,1-.62,1.7,1.983,1.983,0,0,1-1.5.66,2.6,2.6,0,0,1-1.14-.24,9.821,9.821,0,0,1-1.38-.88A4.081,4.081,0,0,0,27.16,67.44ZM18.52,86.8a2.925,2.925,0,0,0,2.66-1.04,5.765,5.765,0,0,0,.7-2.96,12.728,12.728,0,0,0-2.84-.36,7.352,7.352,0,0,0-2.78.48,1.627,1.627,0,0,0-1.18,1.56,1.9,1.9,0,0,0,1.04,1.7A4.6,4.6,0,0,0,18.52,86.8Zm2.16,17.12a18.538,18.538,0,0,1,7.1,1.42,13.144,13.144,0,0,1,5.72,4.52,13,13,0,0,1,2.26,7.86,12.461,12.461,0,0,1-2.8,8.32,16.311,16.311,0,0,1-7.28,4.88,28.991,28.991,0,0,1-9.6,1.56q-1.2,0-1.2-.2t.7-.32q.7-.12.78-.12a24.665,24.665,0,0,0,7.62-2.54,14.549,14.549,0,0,0,5.36-4.82,12.414,12.414,0,0,0,1.98-7q0-4.92-2-7.66a10.006,10.006,0,0,0-4.54-3.68,13.358,13.358,0,0,0-4.58-.94,5.129,5.129,0,0,0-.76.04,12.381,12.381,0,0,1,.84,2.62,14.293,14.293,0,0,1,.36,3.1,20.287,20.287,0,0,1-1.44,7.68,30.809,30.809,0,0,1-2.9,5.52,18.392,18.392,0,0,1-3.3,3.86,4.739,4.739,0,0,1-2.76,1.38,3.916,3.916,0,0,1-2.88-1.6,12.472,12.472,0,0,1-2.28-4.06,14.151,14.151,0,0,1-.88-4.78A13.408,13.408,0,0,1,6.64,111a16.009,16.009,0,0,1,6.24-5.26A17.869,17.869,0,0,1,20.68,103.92Zm-1.56,4.24a8.6,8.6,0,0,0-.44-2.88,12.43,12.43,0,0,0-5.74,2.14,12.8,12.8,0,0,0-4.04,4.46,11.624,11.624,0,0,0-1.46,5.64,10.209,10.209,0,0,0,.56,3.6,6.29,6.29,0,0,0,1.32,2.24,2.076,2.076,0,0,0,1.24.76q1.68,0,4.8-4.64a25.9,25.9,0,0,0,2.88-5.68A17.487,17.487,0,0,0,19.12,108.16Zm15.64,44.72v1.76l.08,1.4q0,.56.08,1.68a.489.489,0,0,1-.12.36,3.681,3.681,0,0,1-1.36.7,5.659,5.659,0,0,1-1.8.34h-.28a.283.283,0,0,1-.32-.32v-.4h-3v4.2H30.6l.96-1.36q.2-.28.46-.66a4.1,4.1,0,0,1,.44-.56.5.5,0,0,1,.34-.18q.36,0,1.8,1.24a8.364,8.364,0,0,1,1.76,1.84l.04.16a.557.557,0,0,1-.3.5,1.415,1.415,0,0,1-.74.18H28.04v4.04h3.8l.96-1.44q.16-.24.46-.66a7.538,7.538,0,0,1,.48-.62.49.49,0,0,1,.34-.2q.36,0,1.88,1.32a9.037,9.037,0,0,1,1.84,1.92.363.363,0,0,1,0,.4,1.036,1.036,0,0,1-1,.44H28.04v1.12l.12,1.8a.691.691,0,0,1-.04.4,2.87,2.87,0,0,1-1.36.96,5.3,5.3,0,0,1-2.08.44q-.8,0-.96-.6a1.683,1.683,0,0,1,.04-.4q.08-.8.08-1.16l.08-.96v-1.6H18.4a.345.345,0,0,1-.36-.28l-.16-.64a18.974,18.974,0,0,1-1,2.56,9.787,9.787,0,0,0,4.78,3.02,28,28,0,0,0,7.5.82q6.36,0,8.72-.04a.326.326,0,0,1,.24.08.23.23,0,0,1,.08.16q0,.2-.28.32a2.645,2.645,0,0,0-1.32,1.3,5.5,5.5,0,0,0-.6,2.26.283.283,0,0,1-.32.32H28.92a21.21,21.21,0,0,1-8.16-1.32,10.251,10.251,0,0,1-5-4.76,20.734,20.734,0,0,1-5.96,6.6q-.24.2-.44-.08l-.04-.04a.315.315,0,0,1,.04-.44,22.8,22.8,0,0,0,5-9.48,31.87,31.87,0,0,1-1.24-5.44q-.6,1.52-1.68,3.8a.648.648,0,0,1,.12.4.557.557,0,0,1-.04.24.165.165,0,0,1-.2.14.32.32,0,0,1-.24-.14L9.2,165.96v4.12q.12,5.16.28,7.76a.543.543,0,0,1-.16.4,4.332,4.332,0,0,1-1.46.84,5.408,5.408,0,0,1-1.98.4,1.437,1.437,0,0,1-.88-.24.692.692,0,0,1-.32-.56q.16-2.36.28-4.58t.16-5.82v-9.44a27.854,27.854,0,0,1-2.96,3.88.37.37,0,0,1-.44.04.386.386,0,0,1-.16-.44,65.158,65.158,0,0,0,3.92-11.88q.44-1.92.76-4.3a31.2,31.2,0,0,0,.32-4.06.223.223,0,0,1,.12-.22.4.4,0,0,1,.28-.02q3.12,1,4.28,1.48t1.16.76q0,.12-.36.28l-.72.32q-.08.28-.16.54t-.12.46a13.113,13.113,0,0,0,2.4.32h1.08l.76-1q.12-.16.34-.44a3.2,3.2,0,0,1,.38-.42.489.489,0,0,1,.32-.14,5.455,5.455,0,0,1,1.76,1.22,9.375,9.375,0,0,1,1.8,1.82.3.3,0,0,1-.08.4,3.551,3.551,0,0,1-1.6.48q-1.4,4.04-3.48,9.32h.96l1.72-1.88a.252.252,0,0,1,.44-.04l2.2,1.96h3.88v-4.4H22a12.773,12.773,0,0,0-3.16.48q-.32.08-.4-.16l-.72-1.4-.04-.16q0-.24.32-.16,1.92.16,3.84.24h2.08v-4.2h-1.2a5.36,5.36,0,0,0-1.56.4q-.32.2-.44-.12l-.68-1.32-.04-.16q0-.28.28-.2a16.342,16.342,0,0,0,2.32.24h1.32a38.215,38.215,0,0,0-.2-3.96q0-.4.36-.32a37.982,37.982,0,0,1,3.9,1.08q1.06.4,1.06.72,0,.16-.32.36l-.68.44v1.68h2.6l.8-1q.16-.16.52-.58t.6-.42a5.121,5.121,0,0,1,1.78,1.1,7.81,7.81,0,0,1,1.78,1.7q.12.16-.08.36a2.853,2.853,0,0,1-1.28.6v3.24l.56-1.04a3.7,3.7,0,0,0,.28-.46,2.556,2.556,0,0,1,.28-.44.36.36,0,0,1,.28-.14q.32,0,1.36,1.08a6.232,6.232,0,0,1,1.28,1.68.818.818,0,0,1,0,.36.967.967,0,0,1-.96.48Zm-19.92,14.4a55.943,55.943,0,0,0,1.12-8.92H14.28l-.44,1.04a.481.481,0,0,1-.32.32,4.28,4.28,0,0,1-1.04.12,6.557,6.557,0,0,1-2.12-.4.3.3,0,0,1-.2-.44q2.32-5.48,4.4-11.84h-1a3.232,3.232,0,0,0-1.24.4q-.32.12-.44-.12L11,145.76a59.663,59.663,0,0,1-2.84,7.6q2,1.28,2,1.8,0,.24-.36.36l-.6.24v9.96a27.4,27.4,0,0,0,3.52-2.92l.08-1.32a.269.269,0,0,1,.12-.24.264.264,0,0,1,.28,0l.88.24q.36.12.16.44l-.8,1.12-.04.08A25.831,25.831,0,0,0,14.84,167.28Zm13.2-15.56h3v-4.2h-3Zm0,5.56h3v-4.4h-3Zm-4.12,5.32v-4.2H21.04a1.308,1.308,0,0,1-.46.3,4.186,4.186,0,0,1-.86.18l-.12.92q-.04.36-.14,1.24a13.549,13.549,0,0,1-.26,1.56Zm0,5.2v-4.04H19.68a.345.345,0,0,1-.36-.28l-.16-.6a40.43,40.43,0,0,1-1.2,4.92Zm11.24,42.68a45.86,45.86,0,0,1-6.2,3.52,18.063,18.063,0,0,0,8.92,3.84q.28.04.28.28a.314.314,0,0,1-.24.32,4,4,0,0,0-1.72,1.36,5.736,5.736,0,0,0-1,2.32q-.12.36-.4.24a16.485,16.485,0,0,1-6.98-4.82,20.4,20.4,0,0,1-3.78-8.3v9.24a7.725,7.725,0,0,1-.38,2.68,3.027,3.027,0,0,1-1.56,1.6,10.283,10.283,0,0,1-3.46.84h-.08q-.2,0-.28-.28A12.829,12.829,0,0,0,18,221.7a2.178,2.178,0,0,0-.56-1.02,5.519,5.519,0,0,0-1.16-.82,6.126,6.126,0,0,0-1.76-.54.291.291,0,0,1-.28-.32.23.23,0,0,1,.08-.16.326.326,0,0,1,.24-.08q.96.08,2.18.16t2.02.08a1.025,1.025,0,0,0,.64-.14.705.705,0,0,0,.16-.54v-3.84q-2.8,2.4-5.32,4.28-1.08.84-3.16,2.36a2.085,2.085,0,0,1-.56.96.232.232,0,0,1-.16.04.346.346,0,0,1-.28-.16L7.4,218.08a.7.7,0,0,1-.08-.2q0-.2.24-.24,3.76-1.08,12-4.08v-6.64H16.92a26.277,26.277,0,0,0-4.44.52h-.12a.337.337,0,0,1-.28-.2l-.72-1.4-.04-.16q0-.2.28-.2,2.16.2,4.84.28h3.12v-3.8H9.84a63.049,63.049,0,0,1-.52,7.8,25.455,25.455,0,0,1-2.08,7.1,18.034,18.034,0,0,1-4.68,6.22q-.2.24-.4.08a.3.3,0,0,1-.08-.4,28.219,28.219,0,0,0,2.78-9.4,101.246,101.246,0,0,0,.62-12v-6.28a52.658,52.658,0,0,0-.32-6.04v-.08q0-.32.32-.2l5.04,2.16h8.12a35.422,35.422,0,0,0-.28-4.88q0-.4.36-.32a39.4,39.4,0,0,1,4.14,1.04q1.14.4,1.14.68,0,.16-.28.36l-.68.44v2.68h8.32l1.12-1.68q.16-.2.5-.7a6.887,6.887,0,0,1,.56-.74.591.591,0,0,1,.38-.24,6.793,6.793,0,0,1,1.98,1.52,11.761,11.761,0,0,1,2.02,2.16.363.363,0,0,1,0,.4.993.993,0,0,1-.96.44H19.84a38.064,38.064,0,0,1,4,1.1q1.12.42,1.12.7,0,.12-.28.32l-.64.44v1.48h4.48l.88-1.04q.16-.16.56-.62t.64-.46a5.8,5.8,0,0,1,1.9,1.16,8.135,8.135,0,0,1,1.9,1.76.272.272,0,0,1-.04.36,2.071,2.071,0,0,1-1.16.56v3h.6l.72-1.36a6.121,6.121,0,0,0,.36-.64,3.705,3.705,0,0,1,.34-.58.388.388,0,0,1,.3-.18q.32,0,1.42,1.2a6.823,6.823,0,0,1,1.34,1.84.691.691,0,0,1-.04.4.952.952,0,0,1-.92.44H33.2v5.32q0,.08-.24.24,3.32,2.16,3.32,2.68,0,.12-.4.2ZM12.52,197.8a.337.337,0,0,1-.28-.2l-.72-1.4a.232.232,0,0,1-.04-.16q0-.2.28-.2,2.2.2,4.88.28h2.92a29.642,29.642,0,0,0-.24-4.04H9.84v8.76h9.72v-3.56H17a25.331,25.331,0,0,0-4.36.52Zm16.36-.52H24.04v3.56h4.84Zm0,4.68H24.04v3.8h4.84Zm-.72,11.32a62.876,62.876,0,0,0,3.64-5.16,6.607,6.607,0,0,1-2.16.44H29.2a.283.283,0,0,1-.32-.32v-1.32H24.2A14.421,14.421,0,0,0,28.16,213.28Zm-10.92-1.16a2.14,2.14,0,0,1-.56,1.52,1.835,1.835,0,0,1-1.4.6,2.4,2.4,0,0,1-1.28-.4.54.54,0,0,1-.24-.36,10.781,10.781,0,0,0-1.14-2.66,13.736,13.736,0,0,0-1.78-2.46q-.24-.24-.08-.4a.794.794,0,0,1,.36-.08,1.9,1.9,0,0,1,.44.04,8.675,8.675,0,0,1,4.3,1.68A3.386,3.386,0,0,1,17.24,212.12Zm3.44,23.8a18.538,18.538,0,0,1,7.1,1.42,13.144,13.144,0,0,1,5.72,4.52,13,13,0,0,1,2.26,7.86,12.461,12.461,0,0,1-2.8,8.32,16.311,16.311,0,0,1-7.28,4.88,28.991,28.991,0,0,1-9.6,1.56q-1.2,0-1.2-.2t.7-.32q.7-.12.78-.12a24.665,24.665,0,0,0,7.62-2.54,14.548,14.548,0,0,0,5.36-4.82,12.414,12.414,0,0,0,1.98-7q0-4.92-2-7.66a10.006,10.006,0,0,0-4.54-3.68,13.358,13.358,0,0,0-4.58-.94,5.131,5.131,0,0,0-.76.04,12.381,12.381,0,0,1,.84,2.62,14.293,14.293,0,0,1,.36,3.1,20.287,20.287,0,0,1-1.44,7.68,30.809,30.809,0,0,1-2.9,5.52,18.391,18.391,0,0,1-3.3,3.86,4.739,4.739,0,0,1-2.76,1.38,3.916,3.916,0,0,1-2.88-1.6,12.471,12.471,0,0,1-2.28-4.06,14.151,14.151,0,0,1-.88-4.78A13.408,13.408,0,0,1,6.64,243a16.009,16.009,0,0,1,6.24-5.26A17.869,17.869,0,0,1,20.68,235.92Zm-1.56,4.24a8.6,8.6,0,0,0-.44-2.88,12.43,12.43,0,0,0-5.74,2.14,12.8,12.8,0,0,0-4.04,4.46,11.624,11.624,0,0,0-1.46,5.64,10.209,10.209,0,0,0,.56,3.6,6.29,6.29,0,0,0,1.32,2.24,2.076,2.076,0,0,0,1.24.76q1.68,0,4.8-4.64a25.9,25.9,0,0,0,2.88-5.68A17.487,17.487,0,0,0,19.12,240.16Zm-.44,45.4a18.613,18.613,0,0,1-5.36,3.16q-.16.72-.2,1.08l-1.7,8.5q-1.26,6.3-1.54,7.26a7.078,7.078,0,0,1-1.02,2.2,1.8,1.8,0,0,1-1.5.76,2.519,2.519,0,0,1-1.76-.7,2.408,2.408,0,0,1-.76-1.86,3.8,3.8,0,0,1,.18-1.08q.18-.6.62-1.68,1.52-3.48,2.56-6.5a58.949,58.949,0,0,0,1.88-7.02,11.823,11.823,0,0,1-2.32.24,4.629,4.629,0,0,1-2.54-.7,9.314,9.314,0,0,1-2.42-2.66,1.064,1.064,0,0,1-.2-.48q0-.2.16-.2a.664.664,0,0,1,.26.06q.14.06.34.14,1.16.4,1.9.58a6.494,6.494,0,0,0,1.54.18,9.887,9.887,0,0,0,1.68-.2,23.406,23.406,0,0,0,2.28-.64q.36-2.28.56-3.96a4.969,4.969,0,0,0,.08-.96,3.625,3.625,0,0,0-.74-2.28,6.253,6.253,0,0,0-2.14-1.68q-.24-.16-.24-.28,0-.16.58-.28a6.441,6.441,0,0,1,1.3-.12,7.758,7.758,0,0,1,1.58.18,10.024,10.024,0,0,1,1.58.46,4.524,4.524,0,0,1,1.34.86,2.054,2.054,0,0,1,.58,1.58,4.029,4.029,0,0,1-.2,1.04q.32.24,1.16.76a3.676,3.676,0,0,0,1.02.42q.46.1.58.14a6.344,6.344,0,0,1,1.76.62,1.116,1.116,0,0,1,.56,1.02Q20.12,284.4,18.68,285.56Zm-4.52-1.04q1.6-1,1.6-1.6a1.273,1.273,0,0,0-.22-.7,5.741,5.741,0,0,0-.74-.86Zm18.04.68a4.046,4.046,0,0,1,1.6,1.5,3.5,3.5,0,0,1,.56,1.78,1.58,1.58,0,0,1-.7,1.42,3.653,3.653,0,0,1-1.9.5,10.46,10.46,0,0,0-2.6.4,14.885,14.885,0,0,0-2.76,1.12,3.306,3.306,0,0,1-.44.16q-.2,0-.2-.16a.232.232,0,0,1,.04-.16.708.708,0,0,1,.2-.32l.84-.8q.24-.2.94-.8a8.5,8.5,0,0,0,1.1-1.1,1.485,1.485,0,0,0,.4-.86q0-.44-.6-.84a5.275,5.275,0,0,0-2.14-.96,10.992,10.992,0,0,0-2.18-.24l-1.2.04q-.48,0-.48-.24,0-.32.52-.48a12.927,12.927,0,0,1,4.76-1A8.908,8.908,0,0,1,32.2,285.2ZM30,304.24q2.64,0,3.24,1.12a1.455,1.455,0,0,1,.28.92,2.009,2.009,0,0,1-1.3,2,9.8,9.8,0,0,1-3.74.56,14.628,14.628,0,0,1-7.44-1.72,5.406,5.406,0,0,1-2.96-4.92,5.741,5.741,0,0,1,.84-3.08q.8-1.32,1.16-1.32a.141.141,0,0,1,.16.16,2.588,2.588,0,0,1-.2.62,3.4,3.4,0,0,0-.24.86,3.745,3.745,0,0,0-.04.6,4,4,0,0,0,.38,1.7,3.524,3.524,0,0,0,1.26,1.42,6.829,6.829,0,0,0,2.14.86,13.126,13.126,0,0,0,3.3.38l1.68-.08Zm-5.88,23.88a13.886,13.886,0,0,1,5.2,1.62,10.363,10.363,0,0,1,3.8,3.56,9.724,9.724,0,0,1,1.44,5.34,11.285,11.285,0,0,1-2.12,6.88,14.338,14.338,0,0,1-5.68,4.52,23.976,23.976,0,0,1-7.88,2.04q-1.2.08-1.84.08-.4,0-.4-.24,0-.12.26-.22a3.875,3.875,0,0,1,.52-.16q.26-.06.46-.1a20.194,20.194,0,0,0,8.88-4.94,11.1,11.1,0,0,0,3.2-8.1,8.472,8.472,0,0,0-1.78-5.44A8.361,8.361,0,0,0,23.56,330a54.24,54.24,0,0,1-3.96,9.52,5.927,5.927,0,0,1,1.08.64,2.006,2.006,0,0,1,1,1.6,1.461,1.461,0,0,1-.52,1.14,1.977,1.977,0,0,1-1.36.46,5.539,5.539,0,0,1-2.16-.6,18.532,18.532,0,0,1-4.08,4.36A6.518,6.518,0,0,1,10,348.68a3.068,3.068,0,0,1-1.78-.64,4.624,4.624,0,0,1-1.48-1.92,7.426,7.426,0,0,1-.58-3.08,14.075,14.075,0,0,1,1.08-5.6,13.9,13.9,0,0,1,2.96-4.4q-.12-.36-.62-1.8a16.78,16.78,0,0,0-.98-2.34,5.04,5.04,0,0,0-.96-1.34,9.217,9.217,0,0,0-1.1-.96q-.5-.36-.5-.48,0-.2.64-.2a4.966,4.966,0,0,1,1.4.24,7.288,7.288,0,0,1,1.56.68,4.325,4.325,0,0,1,1.5,1.56,23.271,23.271,0,0,1,1.3,2.76,18.8,18.8,0,0,1,3.92-2.02,17.562,17.562,0,0,1,4.12-1.02,20.943,20.943,0,0,0,.16-2.6,3.827,3.827,0,0,0-.32-1.64,2.873,2.873,0,0,0-1.2-1.2,5.792,5.792,0,0,1-.58-.36q-.22-.16-.22-.28,0-.2.5-.32a4.038,4.038,0,0,1,.94-.12,5.558,5.558,0,0,1,3.68,1.08,3.293,3.293,0,0,1,1.28,2.6,9.713,9.713,0,0,1-.48,2.44ZM15.16,336a19.784,19.784,0,0,0,2.36,2.12,31.411,31.411,0,0,0,2.68-8.36,12.677,12.677,0,0,0-7,3.12A10.275,10.275,0,0,0,15.16,336Zm-4.68,8.56a5.288,5.288,0,0,0,2.32-.7,8.8,8.8,0,0,0,2.76-2.5,17.786,17.786,0,0,1-2.68-2.8,16.377,16.377,0,0,1-1.84-3.32,11.248,11.248,0,0,0-2.12,6.64,4.1,4.1,0,0,0,.42,1.82A1.275,1.275,0,0,0,10.48,344.56Zm.76,51.68a2.818,2.818,0,0,1-1.82-.9,6.4,6.4,0,0,1-1.54-2.18,21.325,21.325,0,0,1-1.72-8.8,23.234,23.234,0,0,1,.38-4.5q.38-1.9,1.1-4.26a24.326,24.326,0,0,0,.76-2.62,10.572,10.572,0,0,0,.24-2.26,6.467,6.467,0,0,0-.32-2.02,3.237,3.237,0,0,0-1-1.54q-.12-.12-.32-.3t-.2-.3q0-.08.1-.12a.587.587,0,0,1,.22-.04,3.957,3.957,0,0,1,.68.16,8.464,8.464,0,0,1,3.62,1.98,4.85,4.85,0,0,1,1.46,3.7,5.111,5.111,0,0,1-.48,2.24,23.336,23.336,0,0,1-1.44,2.48q-.68,1-1.1,1.74a7.189,7.189,0,0,0-.66,1.58,10.548,10.548,0,0,0-.44,2.84,5.346,5.346,0,0,0,.26,1.7q.26.78.62.78a.429.429,0,0,0,.32-.22,5.79,5.79,0,0,0,.36-.58q.64-1.24,1.38-2.74t1.14-2.34a1.882,1.882,0,0,1,.24-.38q.12-.14.2-.14.12,0,.12.16a1.533,1.533,0,0,1-.12.48q-.72,2.08-1.4,4.64a16.858,16.858,0,0,0-.68,4.08,7.389,7.389,0,0,0,.24,1.98,16.156,16.156,0,0,0,.72,1.98,11.68,11.68,0,0,1,.42,1.14,3.6,3.6,0,0,1,.18,1.06,1.437,1.437,0,0,1-.44,1.12A1.547,1.547,0,0,1,11.24,396.24ZM25.92,374a10.631,10.631,0,0,1-4.8-1,5.679,5.679,0,0,1-1.92-1.36A7.458,7.458,0,0,1,18.04,370a1.55,1.55,0,0,1-.16-.6q0-.2.12-.2a1.247,1.247,0,0,1,.4.2q.32.2.52.32a9.379,9.379,0,0,0,3.44.64,15.551,15.551,0,0,0,2.62-.28,25.168,25.168,0,0,0,2.9-.68,5.227,5.227,0,0,1,1.48-.2,3.723,3.723,0,0,1,2.14.56,1.822,1.822,0,0,1,.82,1.6q0,1.44-2.04,2.04A15.382,15.382,0,0,1,25.92,374Zm.84,20.8a12.963,12.963,0,0,1-6.12-1.26,7.255,7.255,0,0,1-3.4-4.18,6.383,6.383,0,0,1-.32-1.32q0-.24.16-.24a.6.6,0,0,1,.38.22l.34.34a8.208,8.208,0,0,0,1.64,1.1,9.129,9.129,0,0,0,2.16.7,13.1,13.1,0,0,0,2.64.24,40.864,40.864,0,0,0,4.32-.32q1.68-.2,2.24-.2a3.275,3.275,0,0,1,2.22.68,2.142,2.142,0,0,1,.78,1.68q0,1.64-2,2.1A23.021,23.021,0,0,1,26.76,394.8Z" transform="translate(1236 203)" fill="#333"/><text transform="translate(1269 610)" fill="#333" font-size="36" font-family="ShipporiMincho-Bold, しっぽり明朝" font-weight="700"><tspan x="0" y="0">、</tspan></text></g><g transform="translate(24 23)"><path d="M25.36-22a10.043,10.043,0,0,1,4.86,1.18,8.663,8.663,0,0,1,3.42,3.3,9.329,9.329,0,0,1,1.24,4.8,10.293,10.293,0,0,1-4.32,8.6,26.024,26.024,0,0,1-11,4.56q-.2.04-.46.1a2.075,2.075,0,0,1-.46.06q-.32,0-.32-.2,0-.28.48-.36a16.711,16.711,0,0,0,6-3.1,15.821,15.821,0,0,0,4.1-4.9,11.858,11.858,0,0,0,1.46-5.6,6.682,6.682,0,0,0-.88-3.48A5.88,5.88,0,0,0,27.1-19.3a7.044,7.044,0,0,0-3.3-.78A9.46,9.46,0,0,0,19-18.62a18.416,18.416,0,0,0-4.72,4.14v.28A62.2,62.2,0,0,0,15.36-3.16,6.348,6.348,0,0,1,15.48-2,2.56,2.56,0,0,1,14.9-.16a1.637,1.637,0,0,1-1.14.6A1.781,1.781,0,0,1,12.4-.24a2.878,2.878,0,0,1-.72-1.52,40.911,40.911,0,0,0-1.4-6.16l-.96,2a3.964,3.964,0,0,1-1.2,1.48,2.45,2.45,0,0,1-1.44.52,1.818,1.818,0,0,1-1.26-.54,1.849,1.849,0,0,1-.58-1.42,3.385,3.385,0,0,1,.32-1.24,6.054,6.054,0,0,1,.98-1.74q.74-.98,1.58-2T8.8-12.2a17.617,17.617,0,0,0-2-4.16,4.178,4.178,0,0,1-1.08-2.16,1.392,1.392,0,0,1,.46-1.04A1.585,1.585,0,0,1,7.32-20l.88.04a6.2,6.2,0,0,0,1.38-.12,4.719,4.719,0,0,0,1.1-.44q1.72-1.04,2.52-1.52.04-.8.28-3.2.24-2.28.24-3.32a4.981,4.981,0,0,0-.38-1.92A6.385,6.385,0,0,0,12-32.4a2.27,2.27,0,0,0-.36-.36q-.24-.2-.24-.32,0-.2.48-.2a6.237,6.237,0,0,1,2.32.52,7.565,7.565,0,0,1,2.4,1.42,2.567,2.567,0,0,1,.88,1.94,3.162,3.162,0,0,1-.18,1.04q-.18.52-.42,1.06t-.32.7a15.79,15.79,0,0,0-1.12,2.68l-.16.56a2.213,2.213,0,0,1,1.24-.48,1.443,1.443,0,0,1,.78.24,2.853,2.853,0,0,1,.7.64,1.422,1.422,0,0,1,.44,1.04,2.3,2.3,0,0,1-.48,1.32l-1.32,1.92q.76-.56,1.88-1.24A13.581,13.581,0,0,1,25.36-22ZM7.44-17.56A37.719,37.719,0,0,0,9.32-12.8l.84-1.04q1.56-1.88,2.76-3.56l.12-2.2a6.442,6.442,0,0,0-1.52,1.72q-.04.08-.34.52a2.117,2.117,0,0,1-.74.68,1.532,1.532,0,0,1-.88.2A4.006,4.006,0,0,1,7.44-17.56Zm5.2,5.24v.04a21.623,21.623,0,0,0-1.72,2.96,10.555,10.555,0,0,0,1.24,2.28q.16.04.26-.52a5.443,5.443,0,0,0,.1-.92Zm6.04,33.88a18.613,18.613,0,0,1-5.36,3.16q-.16.72-.2,1.08l-1.7,8.5q-1.26,6.3-1.54,7.26a7.077,7.077,0,0,1-1.02,2.2,1.8,1.8,0,0,1-1.5.76,2.519,2.519,0,0,1-1.76-.7,2.408,2.408,0,0,1-.76-1.86,3.8,3.8,0,0,1,.18-1.08q.18-.6.62-1.68,1.52-3.48,2.56-6.5a58.948,58.948,0,0,0,1.88-7.02,11.824,11.824,0,0,1-2.32.24,4.628,4.628,0,0,1-2.54-.7A9.314,9.314,0,0,1,2.8,22.56a1.064,1.064,0,0,1-.2-.48q0-.2.16-.2a.664.664,0,0,1,.26.06q.14.06.34.14,1.16.4,1.9.58a6.493,6.493,0,0,0,1.54.18,9.887,9.887,0,0,0,1.68-.2A23.407,23.407,0,0,0,10.76,22q.36-2.28.56-3.96a4.969,4.969,0,0,0,.08-.96,3.625,3.625,0,0,0-.74-2.28,6.253,6.253,0,0,0-2.14-1.68q-.24-.16-.24-.28,0-.16.58-.28a6.44,6.44,0,0,1,1.3-.12,7.759,7.759,0,0,1,1.58.18,10.026,10.026,0,0,1,1.58.46,4.524,4.524,0,0,1,1.34.86,2.054,2.054,0,0,1,.58,1.58,4.029,4.029,0,0,1-.2,1.04q.32.24,1.16.76a3.677,3.677,0,0,0,1.02.42q.46.1.58.14a6.344,6.344,0,0,1,1.76.62,1.116,1.116,0,0,1,.56,1.02Q20.12,20.4,18.68,21.56Zm-4.52-1.04q1.6-1,1.6-1.6a1.273,1.273,0,0,0-.22-.7,5.74,5.74,0,0,0-.74-.86Zm18.04.68a4.046,4.046,0,0,1,1.6,1.5,3.5,3.5,0,0,1,.56,1.78,1.58,1.58,0,0,1-.7,1.42,3.653,3.653,0,0,1-1.9.5,10.459,10.459,0,0,0-2.6.4,14.886,14.886,0,0,0-2.76,1.12,3.307,3.307,0,0,1-.44.16q-.2,0-.2-.16a.232.232,0,0,1,.04-.16.708.708,0,0,1,.2-.32l.84-.8q.24-.2.94-.8a8.5,8.5,0,0,0,1.1-1.1,1.485,1.485,0,0,0,.4-.86q0-.44-.6-.84a5.276,5.276,0,0,0-2.14-.96,10.992,10.992,0,0,0-2.18-.24l-1.2.04q-.48,0-.48-.24,0-.32.52-.48a12.927,12.927,0,0,1,4.76-1A8.908,8.908,0,0,1,32.2,21.2ZM30,40.24q2.64,0,3.24,1.12a1.454,1.454,0,0,1,.28.92,2.009,2.009,0,0,1-1.3,2,9.8,9.8,0,0,1-3.74.56,14.628,14.628,0,0,1-7.44-1.72,5.406,5.406,0,0,1-2.96-4.92,5.741,5.741,0,0,1,.84-3.08q.8-1.32,1.16-1.32a.141.141,0,0,1,.16.16,2.588,2.588,0,0,1-.2.62,3.4,3.4,0,0,0-.24.86,3.745,3.745,0,0,0-.04.6,4,4,0,0,0,.38,1.7,3.524,3.524,0,0,0,1.26,1.42,6.829,6.829,0,0,0,2.14.86,13.125,13.125,0,0,0,3.3.38l1.68-.08ZM19.6,88.96q-4.88,0-7.1-2.9t-2.22-8.58q0-3,.26-5.64t.3-3.04q.04-.28.22-2.04a31.691,31.691,0,0,0,.18-3.2,6.515,6.515,0,0,0-.68-3.06,4.538,4.538,0,0,0-1.72-1.9q-.4-.2-.4-.4,0-.28.94-.46a9.479,9.479,0,0,1,1.78-.18,4.788,4.788,0,0,1,3.7,1.22,4.928,4.928,0,0,1,1.1,3.42,16.259,16.259,0,0,1-.3,2.88q-.3,1.64-.86,3.96a35.849,35.849,0,0,0-1.04,8.12q0,4.24,1.68,6.02t5.44,1.78q6.24,0,13.16-6.4a1.526,1.526,0,0,1,.76-.44q.08,0,.08.12a1.737,1.737,0,0,1-.4.84Q27.68,88.96,19.6,88.96Zm-.92,20.6a18.613,18.613,0,0,1-5.36,3.16q-.16.72-.2,1.08l-1.7,8.5q-1.26,6.3-1.54,7.26a7.077,7.077,0,0,1-1.02,2.2,1.8,1.8,0,0,1-1.5.76,2.519,2.519,0,0,1-1.76-.7,2.408,2.408,0,0,1-.76-1.86,3.8,3.8,0,0,1,.18-1.08q.18-.6.62-1.68,1.52-3.48,2.56-6.5a58.948,58.948,0,0,0,1.88-7.02,11.824,11.824,0,0,1-2.32.24,4.628,4.628,0,0,1-2.54-.7,9.314,9.314,0,0,1-2.42-2.66,1.064,1.064,0,0,1-.2-.48q0-.2.16-.2a.664.664,0,0,1,.26.06q.14.06.34.14,1.16.4,1.9.58a6.494,6.494,0,0,0,1.54.18,9.887,9.887,0,0,0,1.68-.2,23.407,23.407,0,0,0,2.28-.64q.36-2.28.56-3.96a4.969,4.969,0,0,0,.08-.96,3.625,3.625,0,0,0-.74-2.28,6.253,6.253,0,0,0-2.14-1.68q-.24-.16-.24-.28,0-.16.58-.28a6.44,6.44,0,0,1,1.3-.12,7.758,7.758,0,0,1,1.58.18,10.025,10.025,0,0,1,1.58.46,4.524,4.524,0,0,1,1.34.86,2.054,2.054,0,0,1,.58,1.58,4.029,4.029,0,0,1-.2,1.04q.32.24,1.16.76a3.677,3.677,0,0,0,1.02.42q.46.1.58.14a6.344,6.344,0,0,1,1.76.62,1.116,1.116,0,0,1,.56,1.02Q20.12,108.4,18.68,109.56Zm-4.52-1.04q1.6-1,1.6-1.6a1.273,1.273,0,0,0-.22-.7,5.74,5.74,0,0,0-.74-.86Zm18.04.68a4.046,4.046,0,0,1,1.6,1.5,3.5,3.5,0,0,1,.56,1.78,1.58,1.58,0,0,1-.7,1.42,3.653,3.653,0,0,1-1.9.5,10.458,10.458,0,0,0-2.6.4,14.886,14.886,0,0,0-2.76,1.12,3.308,3.308,0,0,1-.44.16q-.2,0-.2-.16a.232.232,0,0,1,.04-.16.708.708,0,0,1,.2-.32l.84-.8q.24-.2.94-.8a8.5,8.5,0,0,0,1.1-1.1,1.485,1.485,0,0,0,.4-.86q0-.44-.6-.84a5.275,5.275,0,0,0-2.14-.96,10.992,10.992,0,0,0-2.18-.24l-1.2.04q-.48,0-.48-.24,0-.32.52-.48a12.927,12.927,0,0,1,4.76-1A8.908,8.908,0,0,1,32.2,109.2ZM30,128.24q2.64,0,3.24,1.12a1.454,1.454,0,0,1,.28.92,2.009,2.009,0,0,1-1.3,2,9.8,9.8,0,0,1-3.74.56,14.628,14.628,0,0,1-7.44-1.72,5.406,5.406,0,0,1-2.96-4.92,5.741,5.741,0,0,1,.84-3.08q.8-1.32,1.16-1.32a.141.141,0,0,1,.16.16,2.588,2.588,0,0,1-.2.62,3.4,3.4,0,0,0-.24.86,3.745,3.745,0,0,0-.04.6,4,4,0,0,0,.38,1.7,3.524,3.524,0,0,0,1.26,1.42,6.829,6.829,0,0,0,2.14.86,13.126,13.126,0,0,0,3.3.38l1.68-.08Zm-5.56,32.2a7.575,7.575,0,0,1,3.54.84,6.415,6.415,0,0,1,2.6,2.5,7.611,7.611,0,0,1,.98,3.94,8.983,8.983,0,0,1-3.68,7.16q-3.68,3-12.72,3.48h-.2q-.56,0-.56-.24,0-.16.2-.22a3.586,3.586,0,0,1,.44-.1,16.974,16.974,0,0,0,6.68-2.04,11.509,11.509,0,0,0,4.16-3.88,8.966,8.966,0,0,0,1.4-4.76,5.555,5.555,0,0,0-1.02-3.46,3.19,3.19,0,0,0-2.66-1.34,5.183,5.183,0,0,0-3.94,2.04,14.759,14.759,0,0,0-2.7,4.44,1.976,1.976,0,0,1-1.84,1.48,2.275,2.275,0,0,1-1.72-.84,5.729,5.729,0,0,1-1.1-2.08,8.3,8.3,0,0,1-.38-2.44,56.3,56.3,0,0,1,1.36-9.24l.28-1.4a8.925,8.925,0,0,1-4.28-1.2,6.576,6.576,0,0,1-2.52-3.2,1.246,1.246,0,0,1-.16-.52q0-.28.24-.28a1.7,1.7,0,0,1,.72.36,8.725,8.725,0,0,0,5.44,1.8q.68,0,1.12-.04a29.173,29.173,0,0,0,.4-4.04,2.414,2.414,0,0,0-.44-1.5,3.6,3.6,0,0,0-1.4-1.02,2.068,2.068,0,0,1-.48-.28.434.434,0,0,1-.2-.32q0-.32,1.02-.56a9.138,9.138,0,0,1,2.1-.24,7.279,7.279,0,0,1,2.78.5,1.668,1.668,0,0,1,1.22,1.58,3.436,3.436,0,0,1-.24,1.04q-.24.68-.56,1.44a9.158,9.158,0,0,0,3,.8,6.5,6.5,0,0,0,1.24-.04,4.419,4.419,0,0,1,.84,0,1.17,1.17,0,0,1,.84.42,1.2,1.2,0,0,1,.32.78,3.263,3.263,0,0,1-.74,1.76,5.3,5.3,0,0,1-2.06,1.68,12.331,12.331,0,0,1-2.32.66,24.82,24.82,0,0,1-3.16.42,35.153,35.153,0,0,0-.68,6.56,16.373,16.373,0,0,0,.14,2.22q.14,1.02.54,1.02a1.777,1.777,0,0,0,1.04-.6,10.783,10.783,0,0,1,3.24-2.14A9.428,9.428,0,0,1,24.44,160.44Zm-6.4-12q-.64,1.68-.88,2.36a8.334,8.334,0,0,0,2.24-.68q.4-.28.4-.4a.984.984,0,0,0-.2-.36A12.051,12.051,0,0,0,18.04,148.44Zm-6.8,71.8a2.818,2.818,0,0,1-1.82-.9,6.4,6.4,0,0,1-1.54-2.18,21.325,21.325,0,0,1-1.72-8.8,23.234,23.234,0,0,1,.38-4.5q.38-1.9,1.1-4.26a24.324,24.324,0,0,0,.76-2.62,10.572,10.572,0,0,0,.24-2.26,6.467,6.467,0,0,0-.32-2.02,3.238,3.238,0,0,0-1-1.54q-.12-.12-.32-.3t-.2-.3q0-.08.1-.12a.587.587,0,0,1,.22-.04,3.955,3.955,0,0,1,.68.16,8.464,8.464,0,0,1,3.62,1.98,4.85,4.85,0,0,1,1.46,3.7,5.11,5.11,0,0,1-.48,2.24,23.335,23.335,0,0,1-1.44,2.48q-.68,1-1.1,1.74a7.189,7.189,0,0,0-.66,1.58,10.548,10.548,0,0,0-.44,2.84,5.347,5.347,0,0,0,.26,1.7q.26.78.62.78a.429.429,0,0,0,.32-.22,5.791,5.791,0,0,0,.36-.58q.64-1.24,1.38-2.74t1.14-2.34a1.882,1.882,0,0,1,.24-.38q.12-.14.2-.14.12,0,.12.16a1.533,1.533,0,0,1-.12.48q-.72,2.08-1.4,4.64a16.858,16.858,0,0,0-.68,4.08,7.389,7.389,0,0,0,.24,1.98,16.156,16.156,0,0,0,.72,1.98,11.682,11.682,0,0,1,.42,1.14,3.6,3.6,0,0,1,.18,1.06,1.437,1.437,0,0,1-.44,1.12A1.547,1.547,0,0,1,11.24,220.24ZM25.92,198a10.631,10.631,0,0,1-4.8-1,5.679,5.679,0,0,1-1.92-1.36A7.457,7.457,0,0,1,18.04,194a1.55,1.55,0,0,1-.16-.6q0-.2.12-.2a1.247,1.247,0,0,1,.4.2q.32.2.52.32a9.379,9.379,0,0,0,3.44.64,15.553,15.553,0,0,0,2.62-.28,25.161,25.161,0,0,0,2.9-.68,5.227,5.227,0,0,1,1.48-.2,3.723,3.723,0,0,1,2.14.56,1.822,1.822,0,0,1,.82,1.6q0,1.44-2.04,2.04A15.382,15.382,0,0,1,25.92,198Zm.84,20.8a12.963,12.963,0,0,1-6.12-1.26,7.255,7.255,0,0,1-3.4-4.18,6.383,6.383,0,0,1-.32-1.32q0-.24.16-.24a.6.6,0,0,1,.38.22l.34.34a8.21,8.21,0,0,0,1.64,1.1,9.128,9.128,0,0,0,2.16.7,13.1,13.1,0,0,0,2.64.24,40.868,40.868,0,0,0,4.32-.32q1.68-.2,2.24-.2a3.275,3.275,0,0,1,2.22.68,2.142,2.142,0,0,1,.78,1.68q0,1.64-2,2.1A23.021,23.021,0,0,1,26.76,218.8Zm2.76,15.32a4.884,4.884,0,0,1,2.02.46,5.3,5.3,0,0,1,1.7,1.18,2.2,2.2,0,0,1,.68,1.52,1.64,1.64,0,0,1-1.68,1.68,10.191,10.191,0,0,1-1.64-.24q-.6-.12-1.34-.24a9.611,9.611,0,0,0-1.54-.12,12.5,12.5,0,0,0-2.92.44,6.057,6.057,0,0,0-3.22,3,21.633,21.633,0,0,0-2.22,5.6,23.269,23.269,0,0,0-.8,5.64,15.4,15.4,0,0,0,.4,3.98,3.4,3.4,0,0,0,1.36,2.04,5.009,5.009,0,0,0,2.72.62l1-.08q1.8-.12,2-.12a4.387,4.387,0,0,1,2.64.68,2.027,2.027,0,0,1,.92,1.68q0,2.28-5.16,2.28-5.08,0-7.38-2.56t-2.3-7.88a17.026,17.026,0,0,1,2.46-9.14,18.86,18.86,0,0,1,6.26-6.3h-.56a14.082,14.082,0,0,0-4.04,1.08,34.805,34.805,0,0,0-5.28,2.64,13.463,13.463,0,0,0-1.84,1.32,13.951,13.951,0,0,1-1.9,1.3A3.871,3.871,0,0,1,8,245a3.4,3.4,0,0,1-2.04-.74,7.37,7.37,0,0,1-1.72-1.8,5.974,5.974,0,0,1-.92-1.9q-.08-.48-.08-.56a.4.4,0,0,1,.08-.26.246.246,0,0,1,.2-.1,1.07,1.07,0,0,1,.52.2,3.381,3.381,0,0,0,1.92.56,5.2,5.2,0,0,0,.84-.08q.6-.12,3.36-1.04,3.92-1.32,7.24-2.28a50.331,50.331,0,0,1,6.12-1.4,10.536,10.536,0,0,0,1.9-.42q.94-.3,1.18-.38,1-.36,1.64-.52A5.26,5.26,0,0,1,29.52,234.12ZM35,247.32a1.919,1.919,0,0,1-1.12-.4,2.47,2.47,0,0,1-.84-1.04,17.892,17.892,0,0,0-1.28-2.3,7.727,7.727,0,0,0-1.8-1.66q-.2-.12-.54-.36t-.34-.36q0-.24.6-.24a12.286,12.286,0,0,1,2.54.4,8.721,8.721,0,0,1,3.12,1.42,3.17,3.17,0,0,1,1.42,2.7,1.694,1.694,0,0,1-.56,1.36A1.814,1.814,0,0,1,35,247.32Zm-4.64,2.72a2.026,2.026,0,0,1-1.2-.4,2.177,2.177,0,0,1-.8-1.16,24.135,24.135,0,0,0-1.02-2.54,6.422,6.422,0,0,0-1.46-1.86l-.48-.36q-.32-.24-.32-.4,0-.2.28-.2a9.209,9.209,0,0,1,2.36.54,9.594,9.594,0,0,1,3.08,1.66,3.448,3.448,0,0,1,1.4,2.8,1.761,1.761,0,0,1-.58,1.44A1.936,1.936,0,0,1,30.36,250.04Zm.84,37a2.186,2.186,0,0,1-.56,1.4,7.528,7.528,0,0,1-1.24,1.2,17.24,17.24,0,0,1-3.32,1.76q1.16,1.76,2.44,3.88.16.28.7,1.18a8.8,8.8,0,0,1,.74,1.46,3.107,3.107,0,0,1,.2,1.04,4.091,4.091,0,0,1-.42,1.68,4.918,4.918,0,0,1-1.1,1.56,2.008,2.008,0,0,1-1.36.64,2.16,2.16,0,0,1-1.48-.76,11.5,11.5,0,0,0-3.76-2.62A10.34,10.34,0,0,0,18,298.6a6.921,6.921,0,0,0-3.78,1,3.175,3.175,0,0,0-1.58,2.84,2.908,2.908,0,0,0,.92,2.32,3.711,3.711,0,0,0,2.52.8,10.394,10.394,0,0,0,2.32-.32,8.993,8.993,0,0,1,2.08-.32,5.658,5.658,0,0,1,2.74.64,1.976,1.976,0,0,1,1.18,1.8,2.065,2.065,0,0,1-.48,1.32,2.2,2.2,0,0,1-1.4.76,10.825,10.825,0,0,1-1.52.18q-.96.06-1.44.06a12.918,12.918,0,0,1-6.62-1.66,5.075,5.075,0,0,1-2.7-4.58,4.861,4.861,0,0,1,1.2-3.3,7.517,7.517,0,0,1,3.18-2.1,12.491,12.491,0,0,1,4.3-.72,37.247,37.247,0,0,1,4.24.4l1.24.12q1.2,0,1.2-.76a2.491,2.491,0,0,0-.32-1.04q-.44-1.16-1.72-3.8a19.846,19.846,0,0,1-5.64.92q-5.52,0-7.96-3.48a2.979,2.979,0,0,1-.68-1.48.141.141,0,0,1,.16-.16,1.184,1.184,0,0,1,.6.32,9.614,9.614,0,0,0,2.92,1.24,14.07,14.07,0,0,0,3.64.48,15.969,15.969,0,0,0,5.28-1l-1.48-2.72-.48-.88a11.356,11.356,0,0,1-3.72.68,5.105,5.105,0,0,1-3.32-.98,9.23,9.23,0,0,1-2.24-3.06q-.04-.08-.14-.3a.908.908,0,0,1-.1-.34q0-.16.12-.16a.746.746,0,0,1,.42.22q.26.22.62.54a4.457,4.457,0,0,0,1.44.8,5.541,5.541,0,0,0,1.96.36,6.742,6.742,0,0,0,2.92-.84,15.361,15.361,0,0,0-1.82-2.08,16.676,16.676,0,0,0-2.02-1.6,5.788,5.788,0,0,0-1.8-.84,2.288,2.288,0,0,1-.62-.24.368.368,0,0,1-.18-.32q0-.56,1-.98a4.87,4.87,0,0,1,1.88-.42,4.233,4.233,0,0,1,2.4.72,5.2,5.2,0,0,1,1.76,2.12,20.3,20.3,0,0,0,1.32,2.64l.6-.24a4.53,4.53,0,0,1,1.44-.24,2.361,2.361,0,0,1,1.48.46,1.354,1.354,0,0,1,.6,1.1,1.721,1.721,0,0,1-.32.96,2.73,2.73,0,0,1-.96.84l-.88.44.6.96a14.362,14.362,0,0,0,3.16.36,9.7,9.7,0,0,0,1.2-.08q.64-.08.88-.12a7.816,7.816,0,0,1,1.64-.2,2.726,2.726,0,0,1,1.46.32A1.183,1.183,0,0,1,31.2,287.04Zm-7.2,1.2.28-.16q.72-.48.72-.76t-.48-.4a15.088,15.088,0,0,1-1.68-.52Zm-2,47.6a11.517,11.517,0,0,1,4.42.88,8.489,8.489,0,0,1,3.52,2.64,6.663,6.663,0,0,1,1.38,4.24,7.687,7.687,0,0,1-1.64,4.94,10.076,10.076,0,0,1-4.26,3.1,14.667,14.667,0,0,1-5.46,1.04,7.82,7.82,0,0,1-4.58-1.22,3.6,3.6,0,0,1-1.74-3.02,3.351,3.351,0,0,1,1.14-2.46,4.507,4.507,0,0,1,3.26-1.1,5.821,5.821,0,0,1,3.34,1.08,7,7,0,0,1,2.42,2.88,7.536,7.536,0,0,0,2.5-2.48,6.124,6.124,0,0,0,.94-3.28,5.88,5.88,0,0,0-1.58-4.44,5.459,5.459,0,0,0-3.94-1.52q-5.44,0-8.64,6.04-.16.32-.78,1.48a5.028,5.028,0,0,1-1.22,1.62,2.236,2.236,0,0,1-1.4.46,2.286,2.286,0,0,1-1.56-.56,1.784,1.784,0,0,1-.64-1.4,5.244,5.244,0,0,1,.36-2,7.782,7.782,0,0,1,1.14-1.86q.78-.98,2.58-3.1-.12.12,3.24-3.56,4.8-5.2,6.08-6.96a7.715,7.715,0,0,1,.46-.64,4.188,4.188,0,0,0,.48-.74,1.368,1.368,0,0,0,.14-.58,1.277,1.277,0,0,0-.36-.82.97.97,0,0,0-.68-.42q-.44,0-.96.76a25.224,25.224,0,0,1-2.8,3.42,3.887,3.887,0,0,1-2.76,1.26,2.9,2.9,0,0,1-2.32-1.18A7.075,7.075,0,0,1,10.76,325l-.04-.68q0-.4.16-.4.2,0,.52.48a1.869,1.869,0,0,0,1.6,1q2,0,5.72-2.44a4.386,4.386,0,0,1,2.36-.84,7.843,7.843,0,0,1,2.36.44,7.125,7.125,0,0,1,2.34,1.24,2.306,2.306,0,0,1,.98,1.8q0,1.52-2.32,3.2a63.59,63.59,0,0,0-5.64,4.6,32.172,32.172,0,0,0-4,4.44,19.406,19.406,0,0,1,3.64-1.46A12.908,12.908,0,0,1,22,335.84Zm-2.24,14.24q.32,0,1.04-.08-1.12-2.92-3.52-2.92a1.385,1.385,0,0,0-1.02.34,1.073,1.073,0,0,0-.34.78q0,.84,1.24,1.36A6.657,6.657,0,0,0,19.76,350.08Zm-3.68,27.24q-.2,0-.2-.16a.666.666,0,0,1,.24-.44q.44-.44,1.88-1.64,2.04-1.64,2.04-1.92,0-.12-.24-.2t-.46-.14q-.22-.06-.34-.1-.48-.08-1.08-.24a8.951,8.951,0,0,1-3.04-1.44,7.365,7.365,0,0,1-1.8-1.88,3.077,3.077,0,0,1-.6-1.28q0-.2.08-.2a1.086,1.086,0,0,1,.36.16,4.9,4.9,0,0,0,.88.48,8.9,8.9,0,0,0,2.32.6,21.843,21.843,0,0,0,3.32.24q.64,0,2.16-.16t2.16-.16a5.466,5.466,0,0,1,1.4.16,3.821,3.821,0,0,1,1.86,1.16,2.6,2.6,0,0,1,.74,1.72,1.338,1.338,0,0,1-.68,1.24,5,5,0,0,1-2.04.52,18.7,18.7,0,0,0-4.08.98,14.366,14.366,0,0,0-4.28,2.42A1.253,1.253,0,0,1,16.08,377.32Zm5,18.6q-7.76,0-10.44-2.64a4.816,4.816,0,0,1-1.48-3.6,5.748,5.748,0,0,1,.32-2.04,5.589,5.589,0,0,1,.66-1.44q.38-.56.58-.56t.2.32a4.664,4.664,0,0,1-.12.72,4.691,4.691,0,0,0-.12.96,2.312,2.312,0,0,0,.72,1.76,5.845,5.845,0,0,0,2.32,1.16,16.648,16.648,0,0,0,5.12.64,33.467,33.467,0,0,0,7.36-.8,6.888,6.888,0,0,1,1.48-.2,4.411,4.411,0,0,1,2.38.66,1.956,1.956,0,0,1,1.06,1.7q0,1.68-2.56,2.52a18.607,18.607,0,0,1-3.18.6A36.5,36.5,0,0,1,21.08,395.92Zm.12,45.28a13.936,13.936,0,0,1-7.24-1.62,5.713,5.713,0,0,1-2.68-5.3,8.86,8.86,0,0,1,1.48-5.1,17.4,17.4,0,0,1,4.52-4.3,7.511,7.511,0,0,1-2.12-2.54,7.731,7.731,0,0,1-.64-3.34,11.792,11.792,0,0,1,.16-1.98q.16-.94.44-2.3.2-.84.34-1.66a8.781,8.781,0,0,0,.14-1.46,5.034,5.034,0,0,0-1.04-3.28,3.468,3.468,0,0,0-.5-.48q-.3-.24-.3-.36,0-.28.76-.28a7.434,7.434,0,0,1,1.88.32,5.738,5.738,0,0,1,2.7,1.38,3.413,3.413,0,0,1,1.1,2.62,4.124,4.124,0,0,1-.24,1.42,12.563,12.563,0,0,1-.76,1.62,7.115,7.115,0,0,0-.4.72,11.077,11.077,0,0,0-.9,2.24,8.5,8.5,0,0,0-.34,2.32,5.976,5.976,0,0,0,.48,2.34q.48,1.14,1.16,1.14a6.209,6.209,0,0,0,2.6-1,11.884,11.884,0,0,1,1.52-.78,3.2,3.2,0,0,1,1.2-.26,3.959,3.959,0,0,1,2.28.68,1.91,1.91,0,0,1,1,1.56,1.418,1.418,0,0,1-1,1.4,20.148,20.148,0,0,1-3.6.84,13.242,13.242,0,0,0-6.68,2.68,5.982,5.982,0,0,0-2.24,4.64,3.949,3.949,0,0,0,1.16,3.04,5.143,5.143,0,0,0,3.6,1.08,11.931,11.931,0,0,0,1.88-.16q1-.16,1.92-.36.28-.04,1.28-.24a9.791,9.791,0,0,1,1.92-.2,3.745,3.745,0,0,1,2.26.58,1.9,1.9,0,0,1,.78,1.62q0,1.64-2.42,2.2A24.3,24.3,0,0,1,21.2,441.2Zm5.44,29.48q-3.76,1.24-5.16,1.8a15.283,15.283,0,0,0,.16,1.92,15.992,15.992,0,0,1,.12,2.12,2.863,2.863,0,0,1-.64,1.76,1.842,1.842,0,0,1-1.48.84,1.94,1.94,0,0,1-1.46-.66,2.227,2.227,0,0,1-.62-1.58q0-.52.24-2.76-4.44,2.32-4.44,4.76,0,2.6,4.96,2.6a16.391,16.391,0,0,0,2.64-.18q1.08-.18,2.44-.54a10.3,10.3,0,0,1,2.6-.44,2.892,2.892,0,0,1,1.74.48,1.582,1.582,0,0,1,.66,1.36q0,1.68-2.42,2.42a18.5,18.5,0,0,1-5.42.74A13.387,13.387,0,0,1,14.12,484a4.353,4.353,0,0,1-2.4-4.08,5.635,5.635,0,0,1,1.66-3.88,21.179,21.179,0,0,1,4.54-3.56q.04-.4.04-1.24a8.266,8.266,0,0,0-.56-3.06q-.56-1.42-1.32-1.42a2.566,2.566,0,0,0-2.04,1.26A27.114,27.114,0,0,0,12,471.44a11.543,11.543,0,0,1-.76,1.44,17.883,17.883,0,0,1-1.48,2.02,1.712,1.712,0,0,1-2.78-.2,3.207,3.207,0,0,1-.58-1.9,3.029,3.029,0,0,1,.48-1.72,10.177,10.177,0,0,1,1.64-1.76,25.36,25.36,0,0,0,3.2-3.28,18.439,18.439,0,0,0,2.96-5.48,25.4,25.4,0,0,1-2.96.2,4.6,4.6,0,0,1-2.66-.78,12.618,12.618,0,0,1-2.42-2.3.461.461,0,0,1-.16-.32q0-.12.16-.12a1.919,1.919,0,0,1,.56.12,8.506,8.506,0,0,0,3.28.68,17.9,17.9,0,0,0,2.28-.18,18,18,0,0,0,2.72-.58,10.09,10.09,0,0,0,.16-1.88,2.642,2.642,0,0,0-1.4-2.52q-.08-.04-.26-.14a.877.877,0,0,1-.26-.2.4.4,0,0,1-.08-.26,1.4,1.4,0,0,1,.32-.78.977.977,0,0,1,.8-.34,8.891,8.891,0,0,1,2,.24,3.7,3.7,0,0,1,1.56.68,1.541,1.541,0,0,1,.44,1.2,6.579,6.579,0,0,1-.08.76,3.96,3.96,0,0,0,1.72.4,4.109,4.109,0,0,0,1-.12,8.486,8.486,0,0,1,.96-.08,1.147,1.147,0,0,1,.74.24.821.821,0,0,1,.3.68,2.983,2.983,0,0,1-.72,1.84,7.161,7.161,0,0,1-2.12,1.72,14.144,14.144,0,0,1-3.64,1.4,39.121,39.121,0,0,1-2.56,5.8,3.906,3.906,0,0,1,1.76-.44,4.381,4.381,0,0,1,4.6,3.52,14.961,14.961,0,0,1,2.92-4.88,14.624,14.624,0,0,1,2.9-2.42,6.549,6.549,0,0,1,3.62-1.1,4.146,4.146,0,0,1,2.94,1.06,3.619,3.619,0,0,1,1.14,2.78,4.277,4.277,0,0,1-1.92,3.52,16.581,16.581,0,0,1-4.6,2.36Zm-8.52-14.4q.64-.32.96-.52.28-.16.28-.32,0-.12-.32-.36a3.4,3.4,0,0,0-.48-.32Zm6.16,8.48a11.4,11.4,0,0,0-2.64,5.68l.52-.28,1.6-.84q2.24-1.12,3.2-1.68a7.788,7.788,0,0,0,2.44-1.96,3.354,3.354,0,0,0,.84-2,1.421,1.421,0,0,0-.42-1.08,1.643,1.643,0,0,0-1.18-.4,4.4,4.4,0,0,0-2.14.64A8.264,8.264,0,0,0,24.28,464.76Z" transform="translate(1236 203)" fill="#333"/><text transform="translate(1269 700)" fill="#333" font-size="28" font-family="ShipporiMincho-Bold, しっぽり明朝" font-weight="700"><tspan x="0" y="0">。</tspan></text></g></g><path d="M4,0A4,4,0,1,1,0,4,4,4,0,0,1,4,0Z" transform="translate(1344 226)" fill="#ecefac"/><path d="M4,0A4,4,0,1,1,0,4,4,4,0,0,1,4,0Z" transform="translate(1344 273)" fill="#ecefac"/><path d="M4,0A4,4,0,1,1,0,4,4,4,0,0,1,4,0Z" transform="translate(1344 316)" fill="#ecefac"/><path d="M4,0A4,4,0,1,1,0,4,4,4,0,0,1,4,0Z" transform="translate(1344 400)" fill="#ecefac"/><path d="M4,0A4,4,0,1,1,0,4,4,4,0,0,1,4,0Z" transform="translate(1344 448)" fill="#ecefac"/></g></svg>