<svg xmlns="http://www.w3.org/2000/svg" width="31.5" height="31.49" viewBox="0 0 31.5 31.49"><g transform="translate(0.25 0.25)"><g transform="translate(0.5 0.5)"><path d="M11.737-.75a12.487,12.487,0,0,1,8.83,21.317A12.487,12.487,0,0,1,2.907,2.907,12.406,12.406,0,0,1,11.737-.75Zm0,23.475A10.987,10.987,0,1,0,.75,11.737,11,11,0,0,0,11.737,22.725Z" fill="#333"/><path d="M23.535,26.233a2.686,2.686,0,0,1-1.913-.793L17.01,20.829A2.706,2.706,0,1,1,20.838,17l4.611,4.611a2.706,2.706,0,0,1-1.914,4.62Zm-4.61-8.524a1.206,1.206,0,0,0-.854,2.058l4.612,4.612a1.206,1.206,0,1,0,1.706-1.7l-4.612-4.612A1.2,1.2,0,0,0,18.924,17.71Z" transform="translate(4.509 4.506)" fill="#333"/><path d="M2.078,3.139-.53.53.53-.53,3.139,2.078Z" transform="translate(19.562 19.562)" fill="#333"/></g></g></svg>